<svg viewBox="0 0 595.275590551 841.88976378" width="595.275590551pt" height="841.88976378pt" xmlns="http://www.w3.org/2000/svg" xmlns:xlink="http://www.w3.org/1999/xlink" xmlns:h5="http://www.w3.org/1999/xhtml"><path fill="#ffffff" fill-rule="nonzero" d="M 0 0v 841.88976378h 595.275590551v -841.88976378Z "/><g transform="matrix(1 0 0 -1 533.582677165 63.522913386)"><use xlink:href="#g1E02D30119FD88A09826855BA16BD87F" x="0" y="0" fill="#000000" fill-rule="nonzero"/></g><g transform="translate(85.039370079 85.039370079)"><g transform="matrix(1 0 0 -1 0 16.462090848)"><use xlink:href="#gD690C159CA2D3F4CE4333405A62AF192" x="0" y="0" fill="#000000" fill-rule="nonzero"/></g><g transform="matrix(1 0 0 -1 18.9764736 16.462090848)"><use xlink:href="#g254AFE515A874C7A854056835DCCDC5E" x="0" y="0" fill="#000000" fill-rule="nonzero"/><use xlink:href="#gAEB94C302EF449E4E75AA9C9FC4FF80B" x="6.594324576" y="0" fill="#000000" fill-rule="nonzero"/><use xlink:href="#gF3D4CD3B7DF3CF5FBDB72701DB441284" x="18.85787064" y="0" fill="#000000" fill-rule="nonzero"/><use xlink:href="#gD6A42502908EE0C2E49BD935B0C1CA0F" x="27.421004352" y="0" fill="#000000" fill-rule="nonzero"/><use xlink:href="#gD9EE42C8D1730BF92864D230206FC2A5" x="35.533446816" y="0" fill="#000000" fill-rule="nonzero"/><use xlink:href="#gD446BD286B24575A7FA0AF43645CA7F1" x="48.057919392" y="0" fill="#000000" fill-rule="nonzero"/><use xlink:href="#g501FAC3BBB6A7E82DE39361449ED4B42" x="60.321465456" y="0" fill="#000000" fill-rule="nonzero"/><use xlink:href="#g7A7D91BF00A1B8FB9ADFF6F19AA78EB" x="72.58501152" y="0" fill="#000000" fill-rule="nonzero"/><use xlink:href="#gF92C3539821F05B21105B1A2911C6AA" x="83.116954368" y="0" fill="#000000" fill-rule="nonzero"/><use xlink:href="#gD9EE42C8D1730BF92864D230206FC2A5" x="94.52655912" y="0" fill="#000000" fill-rule="nonzero"/></g></g><g transform="matrix(1 0 0 -1 121.88976378 159.501460927)"><use xlink:href="#g1BCD6CD2240A20D146CA5A27E65F068E" x="0" y="0" fill="#000000" fill-rule="nonzero"/><use xlink:href="#g3326D56A821F61AB0ABDC278B73E23DD" x="9" y="0" fill="#000000" fill-rule="nonzero"/><use xlink:href="#g413F868FEE821159D2608B7C80AAF0A5" x="19.441691339" y="0" fill="#000000" fill-rule="nonzero"/><use xlink:href="#g745395C0F4BBBD22FBCD0EB6C8DD2449" x="26.113691339" y="0" fill="#000000" fill-rule="nonzero"/><use xlink:href="#gA21E4FD43EFDDC1EE5DCC7F60B4CDFF5" x="32.113691339" y="0" fill="#000000" fill-rule="nonzero"/><use xlink:href="#g5C0A7143165163F49995DCA616D92B1E" x="36.817691339" y="0" fill="#000000" fill-rule="nonzero"/><use xlink:href="#g356CD5BAD6FF1CDC4BE30D8539A232C0" x="46.813691339" y="0" fill="#000000" fill-rule="nonzero"/><use xlink:href="#g3326D56A821F61AB0ABDC278B73E23DD" x="52.813691339" y="0" fill="#000000" fill-rule="nonzero"/><use xlink:href="#g1D3B3549CC82497FA7D79236D8FDAFFC" x="63.255382677" y="0" fill="#000000" fill-rule="nonzero"/><use xlink:href="#g356CD5BAD6FF1CDC4BE30D8539A232C0" x="69.927382677" y="0" fill="#000000" fill-rule="nonzero"/></g><g transform="matrix(1 0 0 -1 203.530837795 159.501460927)"><use xlink:href="#g1BCD6CD2240A20D146CA5A27E65F068E" x="0" y="0" fill="oklch(39.8% 0.195 -82.634)" fill-rule="nonzero"/><use xlink:href="#g3326D56A821F61AB0ABDC278B73E23DD" x="9" y="0" fill="oklch(39.8% 0.195 -82.634)" fill-rule="nonzero"/><use xlink:href="#g3326D56A821F61AB0ABDC278B73E23DD" x="13.728" y="0" fill="oklch(39.8% 0.195 -82.634)" fill-rule="nonzero"/><use xlink:href="#g745395C0F4BBBD22FBCD0EB6C8DD2449" x="18.456" y="0" fill="oklch(39.8% 0.195 -82.634)" fill-rule="nonzero"/><use xlink:href="#g6D4E56BAB6F75D3900BC9B686CF82962" x="24.792" y="0" fill="oklch(39.8% 0.195 -82.634)" fill-rule="nonzero"/><use xlink:href="#g93AF8C8216FD4BF7B51F57176E45FEF8" x="30.12" y="0" fill="oklch(39.8% 0.195 -82.634)" fill-rule="nonzero"/><use xlink:href="#g356CD5BAD6FF1CDC4BE30D8539A232C0" x="33.456" y="0" fill="oklch(39.8% 0.195 -82.634)" fill-rule="nonzero"/><use xlink:href="#gD0A5A00FC89B3C08D65B1E6AA687E286" x="39.456" y="0" fill="oklch(39.8% 0.195 -82.634)" fill-rule="nonzero"/><use xlink:href="#g51F288ACAE4F10EF4A2EA3B1900812BD" x="44.784" y="0" fill="oklch(39.8% 0.195 -82.634)" fill-rule="nonzero"/><use xlink:href="#g745395C0F4BBBD22FBCD0EB6C8DD2449" x="50.784" y="0" fill="oklch(39.8% 0.195 -82.634)" fill-rule="nonzero"/><use xlink:href="#g95ECA4C1F3348DD2FC73E3C9777DC30B" x="62.497691339" y="0" fill="oklch(39.8% 0.195 -82.634)" fill-rule="nonzero"/><use xlink:href="#gA21E4FD43EFDDC1EE5DCC7F60B4CDFF5" x="70.993691339" y="0" fill="oklch(39.8% 0.195 -82.634)" fill-rule="nonzero"/><use xlink:href="#g356CD5BAD6FF1CDC4BE30D8539A232C0" x="75.697691339" y="0" fill="oklch(39.8% 0.195 -82.634)" fill-rule="nonzero"/><use xlink:href="#g3326D56A821F61AB0ABDC278B73E23DD" x="81.697691339" y="0" fill="oklch(39.8% 0.195 -82.634)" fill-rule="nonzero"/><use xlink:href="#g93AF8C8216FD4BF7B51F57176E45FEF8" x="86.425691339" y="0" fill="oklch(39.8% 0.195 -82.634)" fill-rule="nonzero"/><use xlink:href="#g358159C21AA2AB9587F309290E777DC2" x="89.761691339" y="0" fill="oklch(39.8% 0.195 -82.634)" fill-rule="nonzero"/><use xlink:href="#g590E34C4350A928971F5F4542AB11ED" x="93.097691339" y="0" fill="oklch(39.8% 0.195 -82.634)" fill-rule="nonzero"/><use xlink:href="#g93AF8C8216FD4BF7B51F57176E45FEF8" x="98.425691339" y="0" fill="oklch(39.8% 0.195 -82.634)" fill-rule="nonzero"/><use xlink:href="#gA21E4FD43EFDDC1EE5DCC7F60B4CDFF5" x="101.761691339" y="0" fill="oklch(39.8% 0.195 -82.634)" fill-rule="nonzero"/><use xlink:href="#g356CD5BAD6FF1CDC4BE30D8539A232C0" x="106.465691339" y="0" fill="oklch(39.8% 0.195 -82.634)" fill-rule="nonzero"/><use xlink:href="#g1D3B3549CC82497FA7D79236D8FDAFFC" x="118.179382677" y="0" fill="oklch(39.8% 0.195 -82.634)" fill-rule="nonzero"/><use xlink:href="#g590E34C4350A928971F5F4542AB11ED" x="124.851382677" y="0" fill="oklch(39.8% 0.195 -82.634)" fill-rule="nonzero"/><use xlink:href="#gF1271E0D107D65FFC9A88AB3BEFD36AA" x="135.893074016" y="0" fill="oklch(39.8% 0.195 -82.634)" fill-rule="nonzero"/><use xlink:href="#g745395C0F4BBBD22FBCD0EB6C8DD2449" x="144.893074016" y="0" fill="oklch(39.8% 0.195 -82.634)" fill-rule="nonzero"/><use xlink:href="#gA21E4FD43EFDDC1EE5DCC7F60B4CDFF5" x="150.893074016" y="0" fill="oklch(39.8% 0.195 -82.634)" fill-rule="nonzero"/><use xlink:href="#g5C0A7143165163F49995DCA616D92B1E" x="155.597074016" y="0" fill="oklch(39.8% 0.195 -82.634)" fill-rule="nonzero"/><use xlink:href="#g356CD5BAD6FF1CDC4BE30D8539A232C0" x="165.593074016" y="0" fill="oklch(39.8% 0.195 -82.634)" fill-rule="nonzero"/><use xlink:href="#g3326D56A821F61AB0ABDC278B73E23DD" x="171.593074016" y="0" fill="oklch(39.8% 0.195 -82.634)" fill-rule="nonzero"/><use xlink:href="#g866A1F602DC8A27174A218E44DC7C2D9" x="182.034765354" y="0" fill="oklch(39.8% 0.195 -82.634)" fill-rule="nonzero"/><use xlink:href="#g20AE561F2AEA48166CF47632158C6ED6" x="190.026765354" y="0" fill="oklch(39.8% 0.195 -82.634)" fill-rule="nonzero"/><use xlink:href="#g6D4E56BAB6F75D3900BC9B686CF82962" x="195.354765354" y="0" fill="oklch(39.8% 0.195 -82.634)" fill-rule="nonzero"/><use xlink:href="#g413F868FEE821159D2608B7C80AAF0A5" x="200.682765354" y="0" fill="oklch(39.8% 0.195 -82.634)" fill-rule="nonzero"/><use xlink:href="#g93AF8C8216FD4BF7B51F57176E45FEF8" x="207.354765354" y="0" fill="oklch(39.8% 0.195 -82.634)" fill-rule="nonzero"/><use xlink:href="#g6D4E56BAB6F75D3900BC9B686CF82962" x="210.690765354" y="0" fill="oklch(39.8% 0.195 -82.634)" fill-rule="nonzero"/><use xlink:href="#g356CD5BAD6FF1CDC4BE30D8539A232C0" x="216.018765354" y="0" fill="oklch(39.8% 0.195 -82.634)" fill-rule="nonzero"/><use xlink:href="#g3326D56A821F61AB0ABDC278B73E23DD" x="222.018765354" y="0" fill="oklch(39.8% 0.195 -82.634)" fill-rule="nonzero"/><use xlink:href="#g6D4AC0451B6AB40C9A160024F5D5817E" x="232.460456693" y="0" fill="oklch(39.8% 0.195 -82.634)" fill-rule="nonzero"/><use xlink:href="#g1BCD6CD2240A20D146CA5A27E65F068E" x="237.128456693" y="0" fill="oklch(39.8% 0.195 -82.634)" fill-rule="nonzero"/><use xlink:href="#g95ECA4C1F3348DD2FC73E3C9777DC30B" x="246.128456693" y="0" fill="oklch(39.8% 0.195 -82.634)" fill-rule="nonzero"/><use xlink:href="#gF1271E0D107D65FFC9A88AB3BEFD36AA" x="254.624456693" y="0" fill="oklch(39.8% 0.195 -82.634)" fill-rule="nonzero"/><use xlink:href="#g866A1F602DC8A27174A218E44DC7C2D9" x="263.624456693" y="0" fill="oklch(39.8% 0.195 -82.634)" fill-rule="nonzero"/><use xlink:href="#gC49DCCECD8592F289E2F58F0D57779D5" x="272.288456693" y="0" fill="oklch(39.8% 0.195 -82.634)" fill-rule="nonzero"/></g><a transform="translate(203.530837795 144.501460927)"><rect width="276.956456693" height="18" fill="transparent" stroke="none"/></a><g transform="matrix(1 0 0 -1 480.487294488 159.501460927)"><use xlink:href="#g1D3B3549CC82497FA7D79236D8FDAFFC" x="5.713691339" y="0" fill="#000000" fill-rule="nonzero"/><use xlink:href="#g590E34C4350A928971F5F4542AB11ED" x="12.385691339" y="0" fill="#000000" fill-rule="nonzero"/><use xlink:href="#g609AD2B69DF269CE42B2FB092497335" x="17.713691339" y="0" fill="#000000" fill-rule="nonzero"/><use xlink:href="#g413F868FEE821159D2608B7C80AAF0A5" x="24.385691339" y="0" fill="#000000" fill-rule="nonzero"/><use xlink:href="#g590E34C4350A928971F5F4542AB11ED" x="31.057691339" y="0" fill="#000000" fill-rule="nonzero"/><use xlink:href="#g5C0A7143165163F49995DCA616D92B1E" x="36.385691339" y="0" fill="#000000" fill-rule="nonzero"/><use xlink:href="#g356CD5BAD6FF1CDC4BE30D8539A232C0" x="52.095382677" y="0" fill="#000000" fill-rule="nonzero"/></g><g transform="matrix(1 0 0 -1 85.039370079 177.501460927)"><use xlink:href="#g590E34C4350A928971F5F4542AB11ED" x="0" y="0" fill="#000000" fill-rule="nonzero"/><use xlink:href="#g3326D56A821F61AB0ABDC278B73E23DD" x="5.328" y="0" fill="#000000" fill-rule="nonzero"/><use xlink:href="#gA549CC0003F96337A5E4FE9ECB9C7E0D" x="10.056" y="0" fill="#000000" fill-rule="nonzero"/><use xlink:href="#gA21E4FD43EFDDC1EE5DCC7F60B4CDFF5" x="14.724" y="0" fill="#000000" fill-rule="nonzero"/><use xlink:href="#g1B66C084C32E655684B81A6854298314" x="19.428" y="0" fill="#000000" fill-rule="nonzero"/><use xlink:href="#gA549CC0003F96337A5E4FE9ECB9C7E0D" x="26.1" y="0" fill="#000000" fill-rule="nonzero"/><use xlink:href="#g1B66C084C32E655684B81A6854298314" x="30.768" y="0" fill="#000000" fill-rule="nonzero"/><use xlink:href="#gA21E4FD43EFDDC1EE5DCC7F60B4CDFF5" x="37.44" y="0" fill="#000000" fill-rule="nonzero"/><use xlink:href="#g356CD5BAD6FF1CDC4BE30D8539A232C0" x="42.144" y="0" fill="#000000" fill-rule="nonzero"/><use xlink:href="#g1D3B3549CC82497FA7D79236D8FDAFFC" x="50.823023622" y="0" fill="#000000" fill-rule="nonzero"/><use xlink:href="#g745395C0F4BBBD22FBCD0EB6C8DD2449" x="57.495023622" y="0" fill="#000000" fill-rule="nonzero"/><use xlink:href="#gA549CC0003F96337A5E4FE9ECB9C7E0D" x="66.174047244" y="0" fill="#000000" fill-rule="nonzero"/><use xlink:href="#gA21E4FD43EFDDC1EE5DCC7F60B4CDFF5" x="70.842047244" y="0" fill="#000000" fill-rule="nonzero"/><use xlink:href="#g356CD5BAD6FF1CDC4BE30D8539A232C0" x="75.546047244" y="0" fill="#000000" fill-rule="nonzero"/><use xlink:href="#gDC0B223BCDAB6AB66A674DFACE701BBB" x="81.546047244" y="0" fill="#000000" fill-rule="nonzero"/><use xlink:href="#g356CD5BAD6FF1CDC4BE30D8539A232C0" x="88.218047244" y="0" fill="#000000" fill-rule="nonzero"/><use xlink:href="#g358159C21AA2AB9587F309290E777DC2" x="94.218047244" y="0" fill="#000000" fill-rule="nonzero"/><use xlink:href="#g2E9B05997462686A9E4B61A3556B3C9B" x="97.554047244" y="0" fill="#000000" fill-rule="nonzero"/><use xlink:href="#g745395C0F4BBBD22FBCD0EB6C8DD2449" x="104.226047244" y="0" fill="#000000" fill-rule="nonzero"/><use xlink:href="#g9059D20A265CEB97231BB4D1246B0FFC" x="110.226047244" y="0" fill="#000000" fill-rule="nonzero"/><use xlink:href="#g590E34C4350A928971F5F4542AB11ED" x="116.241070866" y="0" fill="#000000" fill-rule="nonzero"/><use xlink:href="#g356CD5BAD6FF1CDC4BE30D8539A232C0" x="124.248094488" y="0" fill="#000000" fill-rule="nonzero"/><use xlink:href="#g3326D56A821F61AB0ABDC278B73E23DD" x="130.248094488" y="0" fill="#000000" fill-rule="nonzero"/><use xlink:href="#gA549CC0003F96337A5E4FE9ECB9C7E0D" x="137.65511811" y="0" fill="#000000" fill-rule="nonzero"/><use xlink:href="#g356CD5BAD6FF1CDC4BE30D8539A232C0" x="142.32311811" y="0" fill="#000000" fill-rule="nonzero"/><use xlink:href="#gDC0B223BCDAB6AB66A674DFACE701BBB" x="148.32311811" y="0" fill="#000000" fill-rule="nonzero"/><use xlink:href="#g590E34C4350A928971F5F4542AB11ED" x="155.33111811" y="0" fill="#000000" fill-rule="nonzero"/><use xlink:href="#g358159C21AA2AB9587F309290E777DC2" x="160.65911811" y="0" fill="#000000" fill-rule="nonzero"/><use xlink:href="#g356CD5BAD6FF1CDC4BE30D8539A232C0" x="163.99511811" y="0" fill="#000000" fill-rule="nonzero"/><use xlink:href="#g3326D56A821F61AB0ABDC278B73E23DD" x="169.99511811" y="0" fill="#000000" fill-rule="nonzero"/><use xlink:href="#g3326D56A821F61AB0ABDC278B73E23DD" x="177.402141732" y="0" fill="#000000" fill-rule="nonzero"/><use xlink:href="#g590E34C4350A928971F5F4542AB11ED" x="182.130141732" y="0" fill="#000000" fill-rule="nonzero"/><use xlink:href="#gFDBB49AB5F7C87D7C0F6A7CEB5E29AA" x="187.458141732" y="0" fill="#000000" fill-rule="nonzero"/><use xlink:href="#g1B66C084C32E655684B81A6854298314" x="193.458141732" y="0" fill="#000000" fill-rule="nonzero"/><use xlink:href="#g590E34C4350A928971F5F4542AB11ED" x="200.130141732" y="0" fill="#000000" fill-rule="nonzero"/><use xlink:href="#g5C0A7143165163F49995DCA616D92B1E" x="205.458141732" y="0" fill="#000000" fill-rule="nonzero"/><use xlink:href="#g356CD5BAD6FF1CDC4BE30D8539A232C0" x="218.133165354" y="0" fill="#000000" fill-rule="nonzero"/><use xlink:href="#g3326D56A821F61AB0ABDC278B73E23DD" x="224.133165354" y="0" fill="#000000" fill-rule="nonzero"/><use xlink:href="#g413F868FEE821159D2608B7C80AAF0A5" x="231.540188976" y="0" fill="#000000" fill-rule="nonzero"/><use xlink:href="#g745395C0F4BBBD22FBCD0EB6C8DD2449" x="238.212188976" y="0" fill="#000000" fill-rule="nonzero"/><use xlink:href="#gA21E4FD43EFDDC1EE5DCC7F60B4CDFF5" x="244.212188976" y="0" fill="#000000" fill-rule="nonzero"/><use xlink:href="#g5C0A7143165163F49995DCA616D92B1E" x="248.916188976" y="0" fill="#000000" fill-rule="nonzero"/><use xlink:href="#g356CD5BAD6FF1CDC4BE30D8539A232C0" x="258.912188976" y="0" fill="#000000" fill-rule="nonzero"/><use xlink:href="#g3326D56A821F61AB0ABDC278B73E23DD" x="264.912188976" y="0" fill="#000000" fill-rule="nonzero"/><use xlink:href="#g1D3B3549CC82497FA7D79236D8FDAFFC" x="272.319212598" y="0" fill="#000000" fill-rule="nonzero"/><use xlink:href="#g745395C0F4BBBD22FBCD0EB6C8DD2449" x="278.991212598" y="0" fill="#000000" fill-rule="nonzero"/></g><g transform="matrix(1 0 0 -1 372.709606299 177.501460927)"><use xlink:href="#gFF2F83B900BE13DD7D86ECB69C906334" x="0" y="0" fill="oklch(39.8% 0.195 -82.634)" fill-rule="nonzero"/><use xlink:href="#g413F868FEE821159D2608B7C80AAF0A5" x="4.332" y="0" fill="oklch(39.8% 0.195 -82.634)" fill-rule="nonzero"/><use xlink:href="#g3326D56A821F61AB0ABDC278B73E23DD" x="11.004" y="0" fill="oklch(39.8% 0.195 -82.634)" fill-rule="nonzero"/><use xlink:href="#gA549CC0003F96337A5E4FE9ECB9C7E0D" x="15.732" y="0" fill="oklch(39.8% 0.195 -82.634)" fill-rule="nonzero"/><use xlink:href="#g93AF8C8216FD4BF7B51F57176E45FEF8" x="20.4" y="0" fill="oklch(39.8% 0.195 -82.634)" fill-rule="nonzero"/><use xlink:href="#gA549CC0003F96337A5E4FE9ECB9C7E0D" x="23.736" y="0" fill="oklch(39.8% 0.195 -82.634)" fill-rule="nonzero"/><use xlink:href="#g1B66C084C32E655684B81A6854298314" x="28.404" y="0" fill="oklch(39.8% 0.195 -82.634)" fill-rule="nonzero"/><use xlink:href="#gA549CC0003F96337A5E4FE9ECB9C7E0D" x="35.076" y="0" fill="oklch(39.8% 0.195 -82.634)" fill-rule="nonzero"/><use xlink:href="#g745395C0F4BBBD22FBCD0EB6C8DD2449" x="39.744" y="0" fill="oklch(39.8% 0.195 -82.634)" fill-rule="nonzero"/><use xlink:href="#g95ECA4C1F3348DD2FC73E3C9777DC30B" x="48.423023622" y="0" fill="oklch(39.8% 0.195 -82.634)" fill-rule="nonzero"/><use xlink:href="#gA21E4FD43EFDDC1EE5DCC7F60B4CDFF5" x="56.919023622" y="0" fill="oklch(39.8% 0.195 -82.634)" fill-rule="nonzero"/><use xlink:href="#g356CD5BAD6FF1CDC4BE30D8539A232C0" x="61.623023622" y="0" fill="oklch(39.8% 0.195 -82.634)" fill-rule="nonzero"/><use xlink:href="#g3326D56A821F61AB0ABDC278B73E23DD" x="67.623023622" y="0" fill="oklch(39.8% 0.195 -82.634)" fill-rule="nonzero"/><use xlink:href="#g93AF8C8216FD4BF7B51F57176E45FEF8" x="72.351023622" y="0" fill="oklch(39.8% 0.195 -82.634)" fill-rule="nonzero"/><use xlink:href="#g358159C21AA2AB9587F309290E777DC2" x="75.687023622" y="0" fill="oklch(39.8% 0.195 -82.634)" fill-rule="nonzero"/><use xlink:href="#g590E34C4350A928971F5F4542AB11ED" x="79.023023622" y="0" fill="oklch(39.8% 0.195 -82.634)" fill-rule="nonzero"/><use xlink:href="#g93AF8C8216FD4BF7B51F57176E45FEF8" x="84.351023622" y="0" fill="oklch(39.8% 0.195 -82.634)" fill-rule="nonzero"/><use xlink:href="#gA21E4FD43EFDDC1EE5DCC7F60B4CDFF5" x="87.687023622" y="0" fill="oklch(39.8% 0.195 -82.634)" fill-rule="nonzero"/><use xlink:href="#g745395C0F4BBBD22FBCD0EB6C8DD2449" x="92.391023622" y="0" fill="oklch(39.8% 0.195 -82.634)" fill-rule="nonzero"/><use xlink:href="#g1D3B3549CC82497FA7D79236D8FDAFFC" x="101.070047244" y="0" fill="oklch(39.8% 0.195 -82.634)" fill-rule="nonzero"/><use xlink:href="#g590E34C4350A928971F5F4542AB11ED" x="107.742047244" y="0" fill="oklch(39.8% 0.195 -82.634)" fill-rule="nonzero"/><use xlink:href="#gB38B800F52169602ABF92E96035244B4" x="115.749070866" y="0" fill="oklch(39.8% 0.195 -82.634)" fill-rule="nonzero"/><use xlink:href="#g590E34C4350A928971F5F4542AB11ED" x="125.169070866" y="0" fill="oklch(39.8% 0.195 -82.634)" fill-rule="nonzero"/><use xlink:href="#g745395C0F4BBBD22FBCD0EB6C8DD2449" x="130.497070866" y="0" fill="oklch(39.8% 0.195 -82.634)" fill-rule="nonzero"/><use xlink:href="#gFDBB49AB5F7C87D7C0F6A7CEB5E29AA" x="136.497070866" y="0" fill="oklch(39.8% 0.195 -82.634)" fill-rule="nonzero"/><use xlink:href="#gA21E4FD43EFDDC1EE5DCC7F60B4CDFF5" x="142.497070866" y="0" fill="oklch(39.8% 0.195 -82.634)" fill-rule="nonzero"/><use xlink:href="#g356CD5BAD6FF1CDC4BE30D8539A232C0" x="147.201070866" y="0" fill="oklch(39.8% 0.195 -82.634)" fill-rule="nonzero"/><use xlink:href="#g609AD2B69DF269CE42B2FB092497335" x="153.201070866" y="0" fill="oklch(39.8% 0.195 -82.634)" fill-rule="nonzero"/><use xlink:href="#g356CD5BAD6FF1CDC4BE30D8539A232C0" x="159.873070866" y="0" fill="oklch(39.8% 0.195 -82.634)" fill-rule="nonzero"/></g><a transform="translate(372.709606299 162.501460927)"><rect width="165.873070866" height="18" fill="transparent" stroke="none"/></a><g transform="matrix(1 0 0 -1 85.039370079 195.501460927)"><use xlink:href="#g590E34C4350A928971F5F4542AB11ED" x="0" y="0" fill="oklch(39.8% 0.195 -82.634)" fill-rule="nonzero"/><use xlink:href="#g311C0BE73DC3D630DDBDD7AA80A6D105" x="9.324" y="0" fill="oklch(39.8% 0.195 -82.634)" fill-rule="nonzero"/><use xlink:href="#g3326D56A821F61AB0ABDC278B73E23DD" x="17.496" y="0" fill="oklch(39.8% 0.195 -82.634)" fill-rule="nonzero"/><use xlink:href="#gA549CC0003F96337A5E4FE9ECB9C7E0D" x="22.224" y="0" fill="oklch(39.8% 0.195 -82.634)" fill-rule="nonzero"/><use xlink:href="#g356CD5BAD6FF1CDC4BE30D8539A232C0" x="26.892" y="0" fill="oklch(39.8% 0.195 -82.634)" fill-rule="nonzero"/><use xlink:href="#gA549CC0003F96337A5E4FE9ECB9C7E0D" x="32.892" y="0" fill="oklch(39.8% 0.195 -82.634)" fill-rule="nonzero"/><use xlink:href="#g6B2349AFA7C6B64B42981D2A9FFEEDEB" x="37.56" y="0" fill="oklch(39.8% 0.195 -82.634)" fill-rule="nonzero"/><use xlink:href="#g3326D56A821F61AB0ABDC278B73E23DD" x="40.896" y="0" fill="oklch(39.8% 0.195 -82.634)" fill-rule="nonzero"/><use xlink:href="#gA549CC0003F96337A5E4FE9ECB9C7E0D" x="45.624" y="0" fill="oklch(39.8% 0.195 -82.634)" fill-rule="nonzero"/><use xlink:href="#g93AF8C8216FD4BF7B51F57176E45FEF8" x="50.292" y="0" fill="oklch(39.8% 0.195 -82.634)" fill-rule="nonzero"/><use xlink:href="#g6D4E56BAB6F75D3900BC9B686CF82962" x="53.628" y="0" fill="oklch(39.8% 0.195 -82.634)" fill-rule="nonzero"/><use xlink:href="#g356CD5BAD6FF1CDC4BE30D8539A232C0" x="58.956" y="0" fill="oklch(39.8% 0.195 -82.634)" fill-rule="nonzero"/><use xlink:href="#g6D4AC0451B6AB40C9A160024F5D5817E" x="68.952" y="0" fill="oklch(39.8% 0.195 -82.634)" fill-rule="nonzero"/><use xlink:href="#gFF2F83B900BE13DD7D86ECB69C906334" x="73.62" y="0" fill="oklch(39.8% 0.195 -82.634)" fill-rule="nonzero"/><use xlink:href="#g95ECA4C1F3348DD2FC73E3C9777DC30B" x="77.952" y="0" fill="oklch(39.8% 0.195 -82.634)" fill-rule="nonzero"/><use xlink:href="#gB38B800F52169602ABF92E96035244B4" x="86.448" y="0" fill="oklch(39.8% 0.195 -82.634)" fill-rule="nonzero"/><use xlink:href="#g311C0BE73DC3D630DDBDD7AA80A6D105" x="95.868" y="0" fill="oklch(39.8% 0.195 -82.634)" fill-rule="nonzero"/><use xlink:href="#gC49DCCECD8592F289E2F58F0D57779D5" x="104.04" y="0" fill="oklch(39.8% 0.195 -82.634)" fill-rule="nonzero"/></g><a transform="translate(85.039370079 180.501460927)"><rect width="108.708" height="18" fill="transparent" stroke="none"/></a><g transform="matrix(1 0 0 -1 193.747370079 195.501460927)"><use xlink:href="#gA7F4005FC6A956646F12A0D695777F2A" x="0" y="0" fill="#000000" fill-rule="nonzero"/><use xlink:href="#gF1271E0D107D65FFC9A88AB3BEFD36AA" x="7.332" y="0" fill="#000000" fill-rule="nonzero"/><use xlink:href="#g356CD5BAD6FF1CDC4BE30D8539A232C0" x="16.332" y="0" fill="#000000" fill-rule="nonzero"/><use xlink:href="#g3326D56A821F61AB0ABDC278B73E23DD" x="26.328" y="0" fill="#000000" fill-rule="nonzero"/><use xlink:href="#g590E34C4350A928971F5F4542AB11ED" x="31.056" y="0" fill="#000000" fill-rule="nonzero"/><use xlink:href="#gFDBB49AB5F7C87D7C0F6A7CEB5E29AA" x="36.384" y="0" fill="#000000" fill-rule="nonzero"/><use xlink:href="#g1B66C084C32E655684B81A6854298314" x="42.384" y="0" fill="#000000" fill-rule="nonzero"/><use xlink:href="#g413F868FEE821159D2608B7C80AAF0A5" x="49.056" y="0" fill="#000000" fill-rule="nonzero"/><use xlink:href="#g1D3B3549CC82497FA7D79236D8FDAFFC" x="55.728" y="0" fill="#000000" fill-rule="nonzero"/><use xlink:href="#g356CD5BAD6FF1CDC4BE30D8539A232C0" x="62.4" y="0" fill="#000000" fill-rule="nonzero"/><use xlink:href="#g5C0A7143165163F49995DCA616D92B1E" x="72.396" y="0" fill="#000000" fill-rule="nonzero"/><use xlink:href="#g590E34C4350A928971F5F4542AB11ED" x="82.392" y="0" fill="#000000" fill-rule="nonzero"/><use xlink:href="#g413F868FEE821159D2608B7C80AAF0A5" x="87.72" y="0" fill="#000000" fill-rule="nonzero"/><use xlink:href="#gD0A5A00FC89B3C08D65B1E6AA687E286" x="94.392" y="0" fill="#000000" fill-rule="nonzero"/><use xlink:href="#g51F288ACAE4F10EF4A2EA3B1900812BD" x="99.72" y="0" fill="#000000" fill-rule="nonzero"/><use xlink:href="#g745395C0F4BBBD22FBCD0EB6C8DD2449" x="105.72" y="0" fill="#000000" fill-rule="nonzero"/><use xlink:href="#g9059D20A265CEB97231BB4D1246B0FFC" x="111.72" y="0" fill="#000000" fill-rule="nonzero"/><use xlink:href="#g356CD5BAD6FF1CDC4BE30D8539A232C0" x="119.052" y="0" fill="#000000" fill-rule="nonzero"/><use xlink:href="#gE7A7D1A57783D8EC6567B8C2B4641127" x="125.052" y="0" fill="#000000" fill-rule="nonzero"/><use xlink:href="#g590E34C4350A928971F5F4542AB11ED" x="132.06" y="0" fill="#000000" fill-rule="nonzero"/><use xlink:href="#g413F868FEE821159D2608B7C80AAF0A5" x="137.388" y="0" fill="#000000" fill-rule="nonzero"/><use xlink:href="#g356CD5BAD6FF1CDC4BE30D8539A232C0" x="144.06" y="0" fill="#000000" fill-rule="nonzero"/><use xlink:href="#g3326D56A821F61AB0ABDC278B73E23DD" x="150.06" y="0" fill="#000000" fill-rule="nonzero"/><use xlink:href="#g356CD5BAD6FF1CDC4BE30D8539A232C0" x="158.784" y="0" fill="#000000" fill-rule="nonzero"/><use xlink:href="#g3326D56A821F61AB0ABDC278B73E23DD" x="168.78" y="0" fill="#000000" fill-rule="nonzero"/><use xlink:href="#g93AF8C8216FD4BF7B51F57176E45FEF8" x="173.508" y="0" fill="#000000" fill-rule="nonzero"/><use xlink:href="#gFDBB49AB5F7C87D7C0F6A7CEB5E29AA" x="176.844" y="0" fill="#000000" fill-rule="nonzero"/><use xlink:href="#g358159C21AA2AB9587F309290E777DC2" x="182.844" y="0" fill="#000000" fill-rule="nonzero"/><use xlink:href="#g356CD5BAD6FF1CDC4BE30D8539A232C0" x="186.18" y="0" fill="#000000" fill-rule="nonzero"/><use xlink:href="#g20AE561F2AEA48166CF47632158C6ED6" x="196.176" y="0" fill="#000000" fill-rule="nonzero"/><use xlink:href="#g590E34C4350A928971F5F4542AB11ED" x="205.5" y="0" fill="#000000" fill-rule="nonzero"/><use xlink:href="#g93C2F0324F15D5528C025E1F92BF0503" x="210.828" y="0" fill="#000000" fill-rule="nonzero"/><use xlink:href="#g93AF8C8216FD4BF7B51F57176E45FEF8" x="217.164" y="0" fill="#000000" fill-rule="nonzero"/><use xlink:href="#gDC0B223BCDAB6AB66A674DFACE701BBB" x="220.5" y="0" fill="#000000" fill-rule="nonzero"/><use xlink:href="#g93AF8C8216FD4BF7B51F57176E45FEF8" x="227.172" y="0" fill="#000000" fill-rule="nonzero"/><use xlink:href="#g1D3B3549CC82497FA7D79236D8FDAFFC" x="230.508" y="0" fill="#000000" fill-rule="nonzero"/><use xlink:href="#g356CD5BAD6FF1CDC4BE30D8539A232C0" x="237.18" y="0" fill="#000000" fill-rule="nonzero"/><use xlink:href="#gFDC34893CADCDBE70366F73439ADDEFD" x="243.18" y="0" fill="#000000" fill-rule="nonzero"/></g><g transform="matrix(1 0 0 -1 444.259370079 195.501460927)"><use xlink:href="#g1BCD6CD2240A20D146CA5A27E65F068E" x="0" y="0" fill="oklch(39.8% 0.195 -82.634)" fill-rule="nonzero"/><use xlink:href="#g95ECA4C1F3348DD2FC73E3C9777DC30B" x="9" y="0" fill="oklch(39.8% 0.195 -82.634)" fill-rule="nonzero"/><use xlink:href="#gF1271E0D107D65FFC9A88AB3BEFD36AA" x="17.496" y="0" fill="oklch(39.8% 0.195 -82.634)" fill-rule="nonzero"/><use xlink:href="#g866A1F602DC8A27174A218E44DC7C2D9" x="26.496" y="0" fill="oklch(39.8% 0.195 -82.634)" fill-rule="nonzero"/></g><a transform="translate(444.259370079 180.501460927)"><rect width="35.16" height="18" fill="transparent" stroke="none"/></a><g transform="matrix(1 0 0 -1 479.419370079 195.501460927)"><use xlink:href="#gA7F4005FC6A956646F12A0D695777F2A" x="0" y="0" fill="#000000" fill-rule="nonzero"/></g><defs><symbol id="g1E02D30119FD88A09826855BA16BD87F" overflow="visible"><path d="M 0 0m 1.09 5.79c 0.32 0.5 1 0.62 1.36 0.62c 0.34 0 0.93 -0.21 0.93 -1.08c 0 -0.72 -0.27 -1.44 -0.78 -1.63c -0.139306641 -0.051894531 -0.26 -0.06 -0.59 -0.09c -0.240874481 -0.021897583 -0.34 0.02 -0.34 -0.13c 0 -0.04 0.01 -0.08 0.05 -0.1c 0.02 -0.01 0.41 -0.01 0.64 -0.01c 0.81 0 1.18 -0.71 1.18 -1.67c 0 -1.43 -0.78 -1.64 -1.16 -1.64c -0.44 0 -1.18 0.21 -1.5 0.76c 0.04 -0.01 0.07 -0.01 0.1 -0.01c 0.31 0 0.56 0.22 0.56 0.56c 0 0.33 -0.23 0.56 -0.57 0.56c -0.35 0 -0.55 -0.23 -0.55 -0.59c 0 -0.87 0.91 -1.56 2.02 -1.56c 1.08 0 2.13 0.77 2.13 1.95c 0 0.76 -0.58 1.56 -1.67 1.79c 0.8 0.25 1.4 0.96 1.4 1.76c 0 0.82 -0.88 1.38 -1.84 1.38c -1.06 0 -1.77 -0.64 -1.77 -1.35c 0 -0.32 0.2 -0.53 0.5 -0.53c 0.34 0 0.52 0.23 0.52 0.52c 0 0.25 -0.12 0.49 -0.62 0.49Z "/></symbol><symbol id="gD690C159CA2D3F4CE4333405A62AF192" overflow="visible"><path d="M 0 0m 10.057531008 0v 1.375794336h -2.965074v 14.70676704h -0.47441184c -1.399514928 -1.446956112 -3.368324064 -1.518117888 -4.50691248 -1.565559072v -1.375794336c 0.782779536 0.023720592 1.921367952 0.071161776 3.107397552 0.569294208v -12.33470784h -2.965074v -1.375794336Z "/></symbol><symbol id="g254AFE515A874C7A854056835DCCDC5E" overflow="visible"><path d="M 0 0m 4.340868336 0v 16.462090848h -2.111132688v -16.462090848Z "/></symbol><symbol id="gAEB94C302EF449E4E75AA9C9FC4FF80B" overflow="visible"><path d="M 0 0m 10.31845752 0v 7.068736416c 0 1.565559072 -0.35580888 3.724132944 -3.249721104 3.724132944c -2.13485328 0 -3.297162288 -1.613000256 -3.43948584 -1.802764992v 1.684162032h -1.707882624v -10.6742664h 1.850206176v 5.81154504c 0 1.565559072 0.5930148 3.534368208 2.395779792 3.534368208c 2.277176832 0 2.300897424 -1.684162032 2.300897424 -2.443220976v -6.902692272Z "/></symbol><symbol id="gF3D4CD3B7DF3CF5FBDB72701DB441284" overflow="visible"><path d="M 0 0m 7.875236544 0.640455984l -0.379529472 1.399514928c -0.616735392 -0.498132432 -1.375794336 -0.782779536 -2.13485328 -0.782779536c -0.877661904 0 -1.209750192 0.71161776 -1.209750192 1.968809136v 5.930148h 3.344603472v 1.375794336h -3.344603472v 3.012515184h -1.636720848v -3.012515184h -2.063691504v -1.375794336h 1.992529728v -6.333398064c 0 -1.42323552 0.332088288 -3.08367696 1.968809136 -3.08367696c 1.66044144 0 2.870191632 0.5930148 3.463206432 0.901382496Z "/></symbol><symbol id="gD6A42502908EE0C2E49BD935B0C1CA0F" overflow="visible"><path d="M 0 0m 7.756633584 9.203589696v 1.589279664c -2.111132688 -0.023720592 -3.415765248 -1.1860296 -4.1511036 -2.277176832v 2.158573872h -1.66044144v -10.6742664h 1.7790444v 5.076206688c 0 2.3720592 1.707882624 4.079941824 4.03250064 4.127383008Z "/></symbol><symbol id="gD9EE42C8D1730BF92864D230206FC2A5" overflow="visible"><path d="M 0 0m 11.124957648 5.21853024c 0 3.178559328 -2.3720592 5.716662672 -5.194809648 5.716662672c -2.917632816 0 -5.21853024 -2.60926512 -5.21853024 -5.716662672c 0 -3.131118144 2.419500384 -5.479456752 5.194809648 -5.479456752c 2.84647104 0 5.21853024 2.395779792 5.21853024 5.479456752Z m -1.850206176 0.23720592c 0 -2.799029856 -1.613000256 -4.198544784 -3.368324064 -4.198544784c -1.636720848 0 -3.344603472 1.328353152 -3.344603472 4.198544784c 0 2.870191632 1.802764992 4.03250064 3.344603472 4.03250064c 1.66044144 0 3.368324064 -1.233470784 3.368324064 -4.03250064Z "/></symbol><symbol id="gD446BD286B24575A7FA0AF43645CA7F1" overflow="visible"><path d="M 0 0m 10.294736928 0v 16.462090848h -1.7790444v -6.973854048c -1.257191376 1.043706048 -2.585544528 1.30463256 -3.463206432 1.30463256c -2.348338608 0 -4.198544784 -2.466941568 -4.198544784 -5.526897936c 0 -3.107397552 1.826485584 -5.526897936 4.079941824 -5.526897936c 0.782779536 0 2.182294464 0.213485328 3.510647616 1.494397296v -1.233470784Z m -1.850206176 3.297162288c 0 -0.332088288 -0.023720592 -0.759058944 -0.782779536 -1.446956112c -0.545573616 -0.47441184 -1.138588416 -0.664176576 -1.755323808 -0.664176576c -1.470676704 0 -3.20227992 1.114867824 -3.20227992 4.056221232c 0 3.131118144 2.039970912 4.103662416 3.43948584 4.103662416c 1.06742664 0 1.7790444 -0.545573616 2.300897424 -1.30463256Z "/></symbol><symbol id="g501FAC3BBB6A7E82DE39361449ED4B42" overflow="visible"><path d="M 0 0m 10.31845752 0v 10.531942848h -1.850206176v -6.87897168c 0 -1.7790444 -1.328353152 -2.60926512 -2.84647104 -2.60926512c -1.684162032 0 -1.850206176 0.616735392 -1.850206176 1.636720848v 7.851515952h -1.850206176v -7.94639832c 0 -1.707882624 0.545573616 -2.84647104 2.514382752 -2.84647104c 1.257191376 0 2.941353408 0.379529472 4.103662416 1.399514928v -1.138588416Z "/></symbol><symbol id="g7A7D91BF00A1B8FB9ADFF6F19AA78EB" overflow="visible"><path d="M 0 0m 9.84404568 0.94882368l -0.142323552 1.589279664c -1.209750192 -0.94882368 -2.49066216 -1.280911968 -3.700412352 -1.280911968c -1.968809136 0 -3.297162288 1.707882624 -3.297162288 4.03250064c 0 1.850206176 0.877661904 4.127383008 3.392044656 4.127383008c 1.233470784 0 2.039970912 -0.189764736 3.344603472 -1.043706048l 0.284647104 1.54183848c -1.399514928 0.806500128 -2.206015056 1.019985456 -3.652971168 1.019985456c -3.297162288 0 -5.21853024 -2.870191632 -5.21853024 -5.669221488c 0 -2.941353408 2.158573872 -5.526897936 5.123647872 -5.526897936c 1.280911968 0 2.585544528 0.332088288 3.866456496 1.209750192Z m -2.941353408 -2.039970912h -1.446956112l -1.755323808 -3.985059456h 1.636720848Z "/></symbol><symbol id="gF92C3539821F05B21105B1A2911C6AA" overflow="visible"><path d="M 0 0m 9.701722128 0v 6.855251088c 0 2.419500384 -1.731603216 4.079941824 -3.91389768 4.079941824c -1.54183848 0 -2.60926512 -0.379529472 -3.724132944 -1.019985456l 0.142323552 -1.565559072c 1.233470784 0.877661904 2.419500384 1.1860296 3.581809392 1.1860296c 1.114867824 0 2.063691504 -0.94882368 2.063691504 -2.704147488v -1.019985456c -3.5580888 -0.047441184 -6.570603984 -1.043706048 -6.570603984 -3.131118144c 0 -1.019985456 0.640455984 -2.941353408 2.704147488 -2.941353408c 0.332088288 0 2.561823936 0.047441184 3.937618272 1.114867824v -0.853941312Z m -1.850206176 3.131118144c 0 -0.450691248 0 -1.043706048 -0.806500128 -1.494397296c -0.687897168 -0.426970656 -1.589279664 -0.450691248 -1.850206176 -0.450691248c -1.138588416 0 -2.206015056 0.545573616 -2.206015056 1.54183848c 0 1.66044144 3.842735904 1.826485584 4.86272136 1.873926768Z m 1.802764992 12.761678496h -1.446956112c -0.023720592 -0.806500128 -0.308367696 -1.375794336 -0.925103088 -1.375794336c -0.545573616 0 -1.043706048 0.332088288 -1.684162032 0.782779536c -0.450691248 0.308367696 -0.925103088 0.5930148 -1.518117888 0.5930148c -1.114867824 0 -2.277176832 -0.972544272 -2.324618016 -2.822750448h 1.446956112c 0.023720592 0.806500128 0.308367696 1.375794336 0.925103088 1.375794336c 0.545573616 0 1.043706048 -0.332088288 1.684162032 -0.782779536c 0.450691248 -0.308367696 0.925103088 -0.5930148 1.518117888 -0.5930148c 1.114867824 0 2.277176832 0.972544272 2.324618016 2.822750448Z "/></symbol><symbol id="g1BCD6CD2240A20D146CA5A27E65F068E" overflow="visible"><path d="M 0 0m 8.616 0.372c -0.84 0 -1.058287354 0.02784082 -1.2 0.372l -2.676 7.716c -0.039925781 0.114972656 -0.18 0.132 -0.252 0.132c -0.06 0 -0.203636719 -0.02775 -0.24 -0.132l -2.592 -7.44c -0.216 -0.42 -0.588 -0.624 -1.176 -0.648h -0.096v -0.372c 0 0 0.6 0.036 1.104 0.036c 0.492 0 1.2 -0.024 1.5 -0.036v 0.372c -0.636 0 -0.9 0.324 -0.9 0.624c 0 0.112189453 0 0.112189453 0.576 1.74h 2.964c 0.220966553 -0.653596252 0.672130371 -1.895915588 0.672130371 -2.012538208c 0 -0.294906921 -0.50259668 -0.351461792 -0.888130737 -0.351461792h -0.108v -0.372c 0.408 0.024 1.092000366 0.036 1.692000366 0.036c 0.6 0 1.26 -0.036 1.62 -0.036Z m -3.12 2.736h -2.7c 0.456 1.296 0.9 2.604 1.344 3.9l 0.012 -0.024c 0 -0.06 0.072 -0.168 1.344 -3.876Z "/></symbol><symbol id="g3326D56A821F61AB0ABDC278B73E23DD" overflow="visible"><path d="M 0 0m 4.02 5.184v -1.38c 0 -0.168 -0.024 -0.216 -0.144 -0.216c -0.144 0 -0.168 0.072 -0.168 0.204c 0 0.18 -0.06 1.356 -1.368 1.356c -0.984 0 -1.368 -0.432 -1.368 -0.9c 0 -0.492 0.408 -0.72 0.768 -0.828c 0.563670776 -0.169101196 0.852 -0.156 1.392 -0.336c 0.7635 -0.254496094 1.188 -0.864 1.188 -1.536c 0 -0.804 -0.456 -1.68 -1.944 -1.68c -0.576 0 -0.984 0.192 -1.308 0.516c -0.374423767 -0.432027283 -0.448697571 -0.517727966 -0.567220825 -0.517727966c -0.067296387 0 -0.104779175 0.040903015 -0.104779175 0.253727966v 1.668c 0 0.215989929 0.036 0.252 0.156 0.252c 0.096 0 0.126895752 -0.025030701 0.156 -0.156c 0.096 -0.432 0.23222113 -0.813639954 0.393046875 -1.068c 0.386953125 -0.612 0.945007324 -0.684 1.286953125 -0.684c 0.804 0 1.356 0.372 1.356 1.092c 0 0.552 -0.396 0.852 -0.912 1.02c -0.324747253 0.105731689 -1.176 0.18 -1.68 0.468c -0.396 0.228 -0.756 0.624 -0.756 1.176c 0 0.636 0.396 1.488 1.932 1.488c 0.516 0 0.84 -0.144 1.116 -0.336c 0.312 0.3 0.356636719 0.336 0.444 0.336c 0.072 0 0.132 -0.012 0.132 -0.192Z "/></symbol><symbol id="g413F868FEE821159D2608B7C80AAF0A5" overflow="visible"><path d="M 0 0m 5.484 3.624c 0 1.212 -0.564 1.68 -1.668 1.68c -0.888 0 -1.452 -0.6 -1.74 -1.26v 1.26l -1.692 -0.132v -0.372h 0.156c 0.768 0 0.78 -0.207796875 0.78 -0.708v -3.204c 0 -0.504 -0.132 -0.516 -0.936 -0.516v -0.372c 0.276 0 1.056 0.036 1.344 0.036c 0.216 0 1.2 -0.036 1.356 -0.036v 0.372c -0.792 0 -0.936 0.030587036 -0.936 0.492v 2.232c 0 1.212 0.828 1.92 1.62 1.92c 0.552 0 0.888 -0.363966797 0.888 -1.236v -2.916c 0 -0.477667969 -0.144 -0.492 -0.936 -0.492v -0.372c 0.276 0.012 0.936 0.036 1.464 0.036c 0.216 0 1.08 -0.024 1.236 -0.036v 0.372h -0.216c -0.648 0 -0.72 0.132710999 -0.72 0.432Z "/></symbol><symbol id="g745395C0F4BBBD22FBCD0EB6C8DD2449" overflow="visible"><path d="M 0 0m 3 0.168c -0.72 0 -1.272 0.492 -1.488 1.08c -0.132 0.372 -0.18 0.792 -0.18 1.56c 0 0.768 0.096 1.272 0.42 1.68c 0.254713623 0.32075061 0.708 0.624 1.212 0.624c 0.504 0 1.056 -0.276 1.272 -0.624c 0.324 -0.408 0.42 -0.912 0.42 -1.68c 0 -0.768 -0.048 -1.188 -0.18 -1.56c -0.216 -0.588 -0.756 -1.08 -1.476 -1.08Z m 2.652 2.4c 0 1.536 -1.2 2.808 -2.652 2.808c -1.5 0 -2.664 -1.308 -2.664 -2.808c 0 -1.548 1.248 -2.7 2.652 -2.7c 1.452 0 2.664 1.176 2.664 2.7Z "/></symbol><symbol id="gA21E4FD43EFDDC1EE5DCC7F60B4CDFF5" overflow="visible"><path d="M 0 0m 1.272 0.888c 0 -0.492 -0.12 -0.516 -0.936 -0.516v -0.372c 0.312 0 0.852 0.036 1.38 0.036c 0.528 0 1.272 -0.036 1.512 -0.036v 0.372c -1.164 0 -1.164 0.06 -1.164 0.672v 0.852c 0 1.008 0 1.128 0.012 1.224c 0.18 1.752 1.104 1.92 1.38 1.92c 0.06 0 0.096 0 0.156 -0.012c -0.168 -0.096 -0.276 -0.24 -0.276 -0.48c 0 -0.324 0.252 -0.504 0.516 -0.504c 0.192 0 0.516 0.12 0.516 0.528c 0 0.408 -0.396 0.732 -0.888 0.732c -0.768 0 -1.248 -0.624 -1.476 -1.32v 1.32l -1.668 -0.132v -0.372h 0.156c 0.588 -0.036 0.72 -0.072 0.768 -0.468c 0.012 -0.06 0.012 -0.636 0.012 -1.86Z "/></symbol><symbol id="g5C0A7143165163F49995DCA616D92B1E" overflow="visible"><path d="M 0 0m 4.656 3.684v -2.796c 0 -0.45579657 -0.132 -0.516 -0.744 -0.516h -0.192v -0.372c 0.156 0 1.08 0.036 1.344 0.036c 0.348 0 1.068 -0.036 1.356 -0.036v 0.372h -0.204c -0.6 0 -0.732 0.06 -0.732 0.504v 2.256c 0 1.164 0.792 1.908 1.62 1.908c 0.576 0 0.888 -0.396 0.888 -1.284v -2.856c 0 -0.48 -0.132 -0.528 -0.744 -0.528h -0.192v -0.372c 0.156 0 0.996 0.036 1.212 0.036c 0.528 0 1.212 -0.036 1.488 -0.036v 0.372c -0.612 0 -0.936 0 -0.936 0.372v 2.904c 0 1.236 -0.636 1.656 -1.62 1.656c -0.84 0 -1.404 -0.468 -1.752 -1.164c -0.12 0.78 -0.696 1.164 -1.572 1.164c -0.9 0 -1.452 -0.504 -1.8 -1.248v 1.248l -1.692 -0.132v -0.372c 0.864 0 0.936 -0.108 0.936 -0.648v -3.324c 0 -0.42 -0.192 -0.456 -0.744 -0.456h -0.192v -0.372c 0.288 0 0.996 0.036 1.224 0.036c 0.516 0 1.188 -0.036 1.476 -0.036v 0.372c -0.792 0 -0.936 0 -0.936 0.54v 2.232c 0 1.14 0.78 1.896 1.62 1.896c 0.6 0 0.888 -0.384 0.888 -1.356Z "/></symbol><symbol id="g356CD5BAD6FF1CDC4BE30D8539A232C0" overflow="visible"><path d="M 0 0m 4.752 3.384c 0 0.492 -0.048 0.948 -0.396 1.296c -0.444 0.444 -0.924 0.696 -1.788 0.696c -0.696 0 -1.704 -0.468 -1.704 -1.344c 0 -0.372 0.216 -0.576 0.552 -0.576c 0.336 0 0.552 0.216 0.552 0.564c 0 0.288 -0.204 0.54 -0.612 0.54c 0.288 0.36 0.828 0.552 1.26 0.552c 0.648 0 1.308 -0.516 1.308 -1.488v -0.492c -2.664 -0.072 -3.408 -1.176 -3.408 -1.98c 0 -1.008 1.152 -1.284 1.896 -1.284c 0.672 0 1.332 0.348 1.596 1.044c 0.012 -0.228 0.204 -0.984 0.948 -0.984c 0.36 0 0.972 0.264 0.972 1.128v 0.684h -0.3v -0.684c 0 -0.624 -0.276 -0.756 -0.42 -0.756c -0.24 0 -0.456 0.156 -0.456 0.828Z m -0.828 -1.704c 0 -1.056 -0.78 -1.548 -1.416 -1.548c -0.66 0 -1.068 0.505300781 -1.068 1.032c 0 0.576 0.432 1.632 2.484 1.716Z "/></symbol><symbol id="g1D3B3549CC82497FA7D79236D8FDAFFC" overflow="visible"><path d="M 0 0m 2.94 -0.132c 1.104 0 1.608 0.78 1.62 0.792v -0.792h 0.048c 0 0 1.668 0.132 1.68 0.132h 0.036v 0.372h -0.132c -0.684 0 -0.804 0.132 -0.804 0.612v 7.344h -0.012c -0.084 0 -1.716 -0.132 -1.716 -0.132v -0.372h 0.144c 0.612 0 0.792 -0.12 0.792 -0.564v -2.688c -0.396 0.48 -0.936 0.732 -1.512 0.732c -1.536 0 -2.676 -1.296 -2.676 -2.712c 0 -1.507793335 1.154109192 -2.724 2.532 -2.724Z m 0.084 0.264c -0.444 0 -0.756 0.18 -1.044 0.468c -0.396 0.468 -0.576 0.924 -0.576 1.968c 0 0.312 0.012 0.984 0.264 1.512c 0.264 0.552 0.864 0.96 1.464 0.96c 0.624 0 1.116 -0.36 1.416 -0.948v -2.88c -0.084 -0.264 -0.612 -1.08 -1.524 -1.08Z "/></symbol><symbol id="g6D4E56BAB6F75D3900BC9B686CF82962" overflow="visible"><path d="M 0 0m 3.024 -0.132c 1.512 0 1.956 1.368 1.956 1.572c 0 0.072 -0.06 0.108 -0.168 0.108c -0.096 0 -0.12 -0.024 -0.144 -0.108c -0.228 -0.72 -0.696 -1.272 -1.572 -1.272c -0.708 0 -1.692 0.624 -1.692 2.448c 0 0.972 0.216 1.548 0.648 2.04c 0.264 0.264 0.54 0.408 0.948 0.408c 0.54 0 1.044 -0.168 1.308 -0.432c -0.468 -0.024 -0.564 -0.36 -0.564 -0.54c 0 -0.324 0.204 -0.564 0.564 -0.564c 0.312 0 0.54 0.216 0.54 0.576c 0 0.804 -0.948 1.272 -1.836 1.272c -1.548 0 -2.616 -1.368 -2.616 -2.784c 0 -1.308 0.996 -2.724 2.628 -2.724Z "/></symbol><symbol id="g93AF8C8216FD4BF7B51F57176E45FEF8" overflow="visible"><path d="M 0 0m 0.396 0v 0.372c 0.732 0 0.936 0.003386719 0.936 0.444v 3.372c 0 0.534339844 -0.132 0.612 -0.888 0.612v 0.372l 1.68 0.132v -4.488c 0 -0.432186401 0.18 -0.444 0.84 -0.444v -0.372c -0.276 0 -0.792 0.036 -1.26 0.036c -0.42 0 -1.02 -0.036 -1.308 -0.036Z m 1.152 6.756c 0.372 0 0.624 0.264 0.624 0.636c 0 0.408 -0.324 0.624 -0.636 0.624c -0.312 0 -0.624 -0.204 -0.624 -0.624c 0 -0.3 0.18 -0.636 0.636 -0.636Z "/></symbol><symbol id="gD0A5A00FC89B3C08D65B1E6AA687E286" overflow="visible"><path d="M 0 0m 1.464 -2.184v -0.276h 0.528c 0.792 0 2.304 0.048 2.304 0.936c 0 0.696 -0.828 0.828 -0.984 0.864v 0.648h -0.84v -0.852c 0.78 -0.036 0.984 -0.396 0.984 -0.66c 0 -0.528 -0.708 -0.66 -1.848 -0.66Z m 1.56 2.052c 1.512 0 1.956 1.368 1.956 1.572c 0 0.072 -0.06 0.108 -0.168 0.108c -0.096 0 -0.12 -0.024 -0.144 -0.108c -0.228 -0.72 -0.696 -1.272 -1.572 -1.272c -0.708 0 -1.692 0.624 -1.692 2.448c 0 0.972 0.216 1.548 0.648 2.04c 0.264 0.264 0.54 0.408 0.948 0.408c 0.54 0 1.044 -0.168 1.308 -0.432c -0.468 -0.024 -0.564 -0.36 -0.564 -0.54c 0 -0.324 0.204 -0.564 0.564 -0.564c 0.312 0 0.54 0.216 0.54 0.576c 0 0.804 -0.948 1.272 -1.836 1.272c -1.548 0 -2.616 -1.368 -2.616 -2.784c 0 -1.308 0.996 -2.724 2.628 -2.724Z "/></symbol><symbol id="g51F288ACAE4F10EF4A2EA3B1900812BD" overflow="visible"><path d="M 0 0m 4.548 7.296l -0.192 0.18c 0 0 -0.456 -0.576 -0.984 -0.576c -0.276 0 -0.576 0.18 -0.78 0.3c -0.324 0.192 -0.54 0.276 -0.744 0.276c -0.456 0 -0.684 -0.264 -1.296 -0.936l 0.192 -0.18c 0 0 0.456 0.576 0.984 0.576c 0.276 0 0.576 -0.18 0.78 -0.3c 0.324 -0.192 0.54 -0.276 0.744 -0.276c 0.456 0 0.684 0.264 1.296 0.936Z m 0.204 -3.912c 0 0.492 -0.048 0.948 -0.396 1.296c -0.444 0.444 -0.924 0.696 -1.788 0.696c -0.696 0 -1.704 -0.468 -1.704 -1.344c 0 -0.372 0.216 -0.576 0.552 -0.576c 0.336 0 0.552 0.216 0.552 0.564c 0 0.288 -0.204 0.54 -0.612 0.54c 0.288 0.36 0.828 0.552 1.26 0.552c 0.648 0 1.308 -0.516 1.308 -1.488v -0.492c -2.664 -0.072 -3.408 -1.176 -3.408 -1.98c 0 -1.008 1.152 -1.284 1.896 -1.284c 0.672 0 1.332 0.348 1.596 1.044c 0.012 -0.228 0.204 -0.984 0.948 -0.984c 0.36 0 0.972 0.264 0.972 1.128v 0.684h -0.3v -0.684c 0 -0.624 -0.276 -0.756 -0.42 -0.756c -0.24 0 -0.456 0.156 -0.456 0.828Z m -0.828 -1.704c 0 -1.056 -0.78 -1.548 -1.416 -1.548c -0.66 0 -1.068 0.505300781 -1.068 1.032c 0 0.576 0.432 1.632 2.484 1.716Z "/></symbol><symbol id="g95ECA4C1F3348DD2FC73E3C9777DC30B" overflow="visible"><path d="M 0 0m 5.496 4.284c 1.152 0.24 1.992 0.948 1.992 1.872c 0 1.104 -1.116 2.052 -2.82 2.052h -4.236v -0.372c 0.816 0 1.224 0 1.224 -0.384v -6.78c -0.048 -0.192 -0.156 -0.3 -1.056 -0.3h -0.168v -0.372h 2.472c 2.724 0 2.52 0 2.748 0.036c 1.356 0.204 2.16 1.212 2.16 2.148c 0 0.972 -0.948 1.968 -2.316 2.1Z m -2.82 3.288c 0 0.156 0.132 0.264 0.396 0.264h 1.764c 0.792 0 1.476 -0.756 1.476 -1.692c 0 -0.948 -0.852 -1.752 -1.812 -1.752h -1.836Z m -0.012 -6.876v 3.432h 2.28c 1.02 0 1.668 -0.936 1.668 -1.932c 0 -0.936 -0.732 -1.824 -1.86 -1.824h -1.584c -0.312 0 -0.504 0.048 -0.504 0.324Z "/></symbol><symbol id="g358159C21AA2AB9587F309290E777DC2" overflow="visible"><path d="M 0 0m 2.124 0.924c 0 -0.528 0.084 -0.552 0.936 -0.552v -0.372c -0.3 0 -0.864 0.036 -1.344 0.036c -0.48 0 -1.02 -0.036 -1.32 -0.036v 0.372c 0.804 0 0.936 0.036 0.936 0.48v 6.384c 0 0.564 -0.264 0.588 -0.936 0.588v 0.372l 1.728 0.132Z "/></symbol><symbol id="g590E34C4350A928971F5F4542AB11ED" overflow="visible"><path d="M 0 0m 4.656 1.38c -0.384 -1.104 -1.32 -1.212 -1.608 -1.212c -0.42 0 -0.708 0.156 -0.972 0.372c -0.504 0.42 -0.744 1.08 -0.744 2.052v 0.18h 3.432c 0.192 0 0.216 0.036 0.216 0.24c 0 1.38 -0.78 2.364 -2.148 2.364c -1.464 0 -2.496 -1.284 -2.496 -2.736c 0 -1.656 1.284 -2.772 2.664 -2.772c 1.416 0 1.98 1.308 1.98 1.56c 0 0.072 -0.036 0.144 -0.144 0.144c -0.084 0 -0.132 -0.048 -0.18 -0.192Z m -1.836 3.732c 1.212 0 1.368 -1.56 1.368 -2.04v -0.036h -2.844v 0.084c 0.096 1.584 0.996 1.992 1.476 1.992Z "/></symbol><symbol id="gF1271E0D107D65FFC9A88AB3BEFD36AA" overflow="visible"><path d="M 0 0m 7.356 6.912v -6.696c 0 -0.168 -0.048 -0.216 -0.156 -0.216c -0.084 0 -0.093947754 0.014176025 -0.132 0.048c -0.108 0.096 -5.1 7.452 -5.1 7.464v -6.228c 0 -0.372 0.012 -0.912 1.236 -0.912v -0.372c -0.312 0 -0.888 0.036 -1.404 0.036c -0.516 0 -1.092 -0.036 -1.404 -0.036v 0.372c 1.164 0 1.236 0.48 1.236 0.9v 6.12c 0 0.384 -0.024 0.432 -0.924 0.432h -0.312v 0.372h 2.256c 0.084 -0.084 0.18 -0.228 2.208 -3.204l 2.16 -3.168v 5.1c 0 0.42 -0.072 0.9 -1.236 0.9v 0.372c 0.312 0 0.888 -0.036 1.404 -0.036c 0.516 0 1.092 0.036 1.404 0.036v -0.372c -1.224 0 -1.236 -0.54 -1.236 -0.912Z "/></symbol><symbol id="g866A1F602DC8A27174A218E44DC7C2D9" overflow="visible"><path d="M 0 0m 2.04 0c 0.468 0 1.452 0.036 2.292 0.036c 1.104 0 1.932 -0.036 2.268 -0.036v 0.372h -0.228c -1.404 0 -1.512 0.096 -1.512 0.552v 6.36c 0 0.408 0.036 0.468 0.684 0.468h 0.252c 1.812 0 1.956 -0.48 2.124 -2.328h 0.312l -0.24 2.7h -7.332l -0.24 -2.7h 0.312c 0.168 1.872 0.312 2.328 2.124 2.328h 0.252c 0.636 0 0.684 -0.06 0.684 -0.468v -6.36c 0 -0.456 -0.108 -0.552 -1.512 -0.552h -0.228Z "/></symbol><symbol id="g20AE561F2AEA48166CF47632158C6ED6" overflow="visible"><path d="M 0 0m 4.152 7.944c 0 0.216 -0.216 0.432 -0.432 0.432c -0.18 0 -0.312 -0.132 -0.36 -0.204l -1.44 -1.836l 0.204 -0.216l 1.824 1.464c 0.108 0.084 0.204 0.216 0.204 0.36Z m 0.504 -6.564c -0.384 -1.104 -1.32 -1.212 -1.608 -1.212c -0.42 0 -0.708 0.156 -0.972 0.372c -0.504 0.42 -0.744 1.08 -0.744 2.052v 0.18h 3.432c 0.192 0 0.216 0.036 0.216 0.24c 0 1.38 -0.78 2.364 -2.148 2.364c -1.464 0 -2.496 -1.284 -2.496 -2.736c 0 -1.656 1.284 -2.772 2.664 -2.772c 1.416 0 1.98 1.308 1.98 1.56c 0 0.072 -0.036 0.144 -0.144 0.144c -0.084 0 -0.132 -0.048 -0.18 -0.192Z m -1.836 3.732c 1.212 0 1.368 -1.56 1.368 -2.04v -0.036h -2.844v 0.084c 0.096 1.584 0.996 1.992 1.476 1.992Z "/></symbol><symbol id="g6D4AC0451B6AB40C9A160024F5D5817E" overflow="visible"><path d="M 0 0m 1.884 3c 0 1.944 0.42 3.612 1.248 4.836c 0.223804688 0.33084375 0.48 0.636 0.768 0.912c 0.15928125 0.152648438 0.048 0.372 -0.228 0.156c -0.552 -0.432 -1.006617188 -0.967910156 -1.38 -1.584c -0.72 -1.188 -1.104 -2.664 -1.104 -4.32c 0 -1.656 0.384 -3.132 1.104 -4.32c 0.37338446 -0.616084351 0.828 -1.152 1.38 -1.584c 0.276 -0.216 0.387283081 0.00335376 0.228 0.156c -0.288 0.276 -0.544195313 0.58115625 -0.768 0.912c -0.827996521 1.22400238 -1.248 2.892 -1.248 4.836Z "/></symbol><symbol id="gC49DCCECD8592F289E2F58F0D57779D5" overflow="visible"><path d="M 0 0m 2.76 3c 0 1.944 -0.42 3.612 -1.248 4.836c -0.228 0.336 -0.48 0.636 -0.768 0.912c -0.156 0.156 -0.048 0.372 0.228 0.156c 0.552 -0.432 1.008 -0.972 1.38 -1.584c 0.72 -1.188 1.104 -2.664 1.104 -4.32c 0 -1.656 -0.384 -3.132 -1.104 -4.32c -0.372 -0.612 -0.828 -1.152 -1.38 -1.584c -0.276 -0.216 -0.384 0 -0.228 0.156c 0.288 0.276 0.54 0.576 0.768 0.912c 0.828 1.224 1.248 2.892 1.248 4.836Z "/></symbol><symbol id="g609AD2B69DF269CE42B2FB092497335" overflow="visible"><path d="M 0 0m 0.336 0v 0.372c 0.816 0 0.936 0.024 0.936 0.516v 3.912h -0.948v 0.372h 0.948v 1.356c 0 1.32 1.416 1.932 2.544 1.932c 0.916863281 0 1.548 -0.528 1.548 -1.2c 0 -0.384 -0.276 -0.564 -0.552 -0.564c -0.312 0 -0.54 0.228 -0.54 0.552c 0 0.108 0.024 0.54 0.564 0.552c -0.130722656 0.130722656 -0.444 0.396 -1.02 0.396c -0.792 0 -1.788 -0.504 -1.788 -1.692v -1.332h 1.632c 0.576 0.012 1.236 0.06 1.728 0.144v -4.392c 0 -0.516 0.084 -0.552 0.936 -0.552v -0.372c -0.3 0 -0.828 0.036 -1.32 0.036c -0.492 0 -1.032 -0.036 -1.344 -0.036v 0.372c 0.84 0 0.936 0.024 0.936 0.552v 3.252c 0 0.552 -0.168 0.624 -0.732 0.624h -1.8v -2.064v -1.824c 0 -0.516 0.096 -0.54 0.936 -0.54v -0.372c -0.312 0 -0.84 0.036 -1.332 0.036c -0.492 0 -1.044 -0.036 -1.332 -0.036Z "/></symbol><symbol id="gA549CC0003F96337A5E4FE9ECB9C7E0D" overflow="visible"><path d="M 0 0m 3.684 1.464v 0.708h 0.3v -0.708c 0 -0.888 -0.375058594 -1.596 -1.347234009 -1.596c -1.088765991 0 -1.388765991 0.888 -1.388765991 1.668v 3.264h -1.02v 0.264c 1.056 0.036 1.536 1.14 1.548 2.316h 0.3v -2.196h 1.716v -0.384h -1.716v -3.396c 0 -0.624 0.216 -1.236 0.7779245 -1.236c 0.594059875 0 0.8300755 0.684 0.8300755 1.296Z "/></symbol><symbol id="g1B66C084C32E655684B81A6854298314" overflow="visible"><path d="M 0 0m 6.42 0l -1.728 -0.132v 1.08c -0.252 -0.576 -0.732 -1.08 -1.548 -1.08c -1.596 0 -1.824 0.860964844 -1.824 1.692v 2.412c 0 0.708 -0.072 0.828 -0.78 0.828h -0.156v 0.372l 1.764 0.132v -4.032c 0 -0.6 0.108 -1.116 1.032 -1.116c 0.809320313 0 1.476 0.693550781 1.476 1.86v 2.232c 0 0.456 -0.228 0.552 -0.78 0.552h -0.156v 0.372l 1.764 0.132v -4.296c 0 -0.492 0.096 -0.636 0.816 -0.636h 0.12Z "/></symbol><symbol id="gDC0B223BCDAB6AB66A674DFACE701BBB" overflow="visible"><path d="M 0 0m 2.064 4.524v 3.804h -0.012c -0.084 0 -1.632 -0.132 -1.716 -0.132v -0.372h 0.156c 0.552 -0.024 0.708 -0.096 0.756 -0.384c 0.012 -0.048 0.012 -0.24 0.024 -3.72l -0.012 -3.72h 0.312l 0.432 0.744c 0.528 -0.768 1.145389893 -0.876 1.584 -0.876c 1.368 0 2.664 1.14 2.664 2.7c 0 1.56 -1.188 2.736 -2.532 2.736c -0.451089844 0 -1.08 -0.108 -1.656 -0.78Z m 1.488 -4.392c -0.290250366 0 -0.804 0.072 -1.26 0.702421875c -0.092636719 0.128074219 -0.192 0.257578125 -0.192 0.461578125v 2.688c 0 0.210127441 0.590645691 1.056 1.548 1.056c 0.575154053 0 1.608 -0.48 1.608 -2.34c 0 -0.528 -0.024 -1.428 -0.516 -1.98c -0.276 -0.312 -0.66 -0.588 -1.188 -0.588Z "/></symbol><symbol id="g2E9B05997462686A9E4B61A3556B3C9B" overflow="visible"><path d="M 0 0m 3.852908203 5.304194824c 1.102875 0 1.631091797 -0.528700195 1.631091797 -1.65619519v -2.868c 0 -0.393246094 0.24 -0.408 0.936 -0.408v -0.372c -0.288 0 -0.972 0.036 -1.488 0.036c -0.216 0 -1.056 -0.036 -1.212 -0.036v 0.372c 0.024189697 0 0.047795654 -9.155e-6 0.070830322 -9.155e-6c 0.68545166 0 0.865169678 0.008062317 0.865169678 0.504009155v 2.784c 0 0.96 -0.288 1.356 -0.888 1.356c -0.6331875 0 -1.62 -0.564 -1.62 -1.92v -2.172c 0 -0.527922729 0.084 -0.552 0.936 -0.552v -0.372c -0.156 0 -1.068 0.036 -1.284 0.036c -0.528 0 -1.14 -0.036 -1.416 -0.036v 0.372c 0.888 0 0.936 0.048 0.936 0.564v 6.264000366c 0 0.54 -0.132 0.624 -0.936 0.624v 0.372l 1.728 0.132v -4.176h 0.012c 0.528 1.104 1.428007324 1.152194824 1.728908203 1.152194824Z "/></symbol><symbol id="g9059D20A265CEB97231BB4D1246B0FFC" overflow="visible"><path d="M 0 0m 1.344 -2.316c 0.144 0 1.092 0.944565125 1.092 2.304c 0 0.504 -0.12 1.284 -0.768 1.284c -0.444 0 -0.636 -0.348 -0.636 -0.636c 0 -0.264 0.156 -0.636 0.624 -0.636c 0.216 0 0.384 0.084 0.492 0.192v -0.072c 0 -0.948 -0.348 -1.656 -0.876 -2.208c -0.023460938 -0.024527344 -0.048 -0.072 -0.048 -0.096c 0 -0.048 0.024 -0.132 0.12 -0.132Z "/></symbol><symbol id="gFDBB49AB5F7C87D7C0F6A7CEB5E29AA" overflow="visible"><path d="M 0 0m 5.196 5.436c -0.432 0 -0.948 -0.228 -1.26 -0.564c -0.312 0.24 -0.72 0.432 -1.284 0.432c -1.176 0 -1.932 -0.876 -1.932 -1.764c 0 -0.516 0.252 -0.9 0.54 -1.236c -0.204 -0.3 -0.348 -0.624 -0.348 -0.996c 0 -0.648 0.42 -1.02 0.528 -1.056c -0.927071594 -0.309023804 -1.104 -0.839791809 -1.104 -1.2c 0 -0.792 1.044 -1.524 2.664 -1.524c 1.599574219 0 2.652 0.715437561 2.652 1.548c 0 0.468 -0.168 0.84 -0.444 1.116c -0.612 0.588 -1.596 0.6 -2.532 0.6h -0.72c -0.372 0 -0.684 0.372 -0.684 0.816c 0 0.204 0.084 0.408 0.204 0.54c 0.312 -0.192 0.66 -0.36 1.176 -0.36c 1.104 0 1.956 0.792 1.956 1.752c 0 0.42 -0.168 0.852 -0.492 1.164c 0.181446533 0.181446533 0.613044434 0.468 1.068 0.468c 0.06 0 0.132 -0.012 0.132 -0.012c -0.108 -0.036 -0.192 -0.144 -0.192 -0.336c 0 -0.192 0.168 -0.336 0.336 -0.336c 0.24 0 0.36 0.168 0.36 0.36c 0 0.225103271 -0.162003296 0.588 -0.624 0.588Z m -1.488 -1.896c 0 -0.612 -0.096 -0.924 -0.336 -1.176c -0.18 -0.156 -0.384 -0.3 -0.72 -0.3c -0.893401428 0 -1.032 0.910799377 -1.032 1.476c 0 0.612 0.084 0.924 0.324 1.176c 0.168 0.168 0.396 0.312 0.744 0.312c 0.892615723 0 1.02 -0.947257324 1.02 -1.488Z m 1.32 -4.488c 0 -0.576 -0.732 -1.236 -2.04 -1.236c -1.08 0 -2.028 0.504 -2.028 1.224c 0 0.576 0.42 0.936 0.924 1.032h 1.392c 0.564 0 1.752 -0.096 1.752 -1.02Z "/></symbol><symbol id="gFF2F83B900BE13DD7D86ECB69C906334" overflow="visible"><path d="M 0 0m 3.708 0.372h 0.288v -0.372c -0.408 0.024 -1.164 0.036 -1.836 0.036c -0.672 0 -1.416 -0.012 -1.824 -0.036v 0.372h 0.312c 0.948 0 0.984 0.132 0.984 0.564v 3.168v 3.168c 0 0.408 -0.036 0.552 -1.008 0.552h -0.288v 0.372c 0.36 -0.024 1.152 -0.036 1.812 -0.036c 0.36 0 1.584 0.012 1.848 0.036v -0.372h -0.288c -0.924 0 -1.008 -0.108 -1.008 -0.552v -3.168v -3.168c 0 -0.432 0.036 -0.564 1.008 -0.564Z "/></symbol><symbol id="gB38B800F52169602ABF92E96035244B4" overflow="visible"><path d="M 0 0m 7.848 8.46c -0.048 0 -0.091325684 -0.015259277 -0.156 -0.108l -0.636 -0.912c -0.84 0.924 -1.716 1.02 -2.292 1.02c -2.292 0 -4.104 -2.076 -4.104 -4.356c 0 -2.364 1.86 -4.368 4.188 -4.368c 0.984 0 1.908 0.348 2.268 1.032c 0.108 -0.216 0.612 -0.768 0.768 -0.768c 0.048 0 0.108 0.024 0.108 0.192v 2.172c 0 0.348 0.024 0.528 0.468 0.528h 0.36v 0.384l -1.464 -0.036c -0.672 -0.012 -1.5 0.012 -1.944 0.024v -0.372h 0.564c 0.84 0 0.936 -0.144 0.936 -0.444v -0.468c 0 -0.576 0 -0.66 -0.024 -0.756c -0.096 -0.6 -0.852 -1.116 -1.848 -1.116c -0.42 0 -3.132 0.192 -3.132 3.96c 0 3.6 2.376 4.02 3.072 4.02c 1.548 0 2.484 -1.476 2.628 -2.892c 0.024 -0.144 0.024 -0.156 0.192 -0.156c 0.108 0 0.144 0 0.168 0.024c 0.024 0.048 0.024 0.12 0.024 1.68v 1.476c 0 0.204 -0.024 0.24 -0.144 0.24Z "/></symbol><symbol id="g311C0BE73DC3D630DDBDD7AA80A6D105" overflow="visible"><path d="M 0 0m 5.076 2.652h 0.312v 3.18h -0.312c 0 -1.392 -0.36 -1.404 -1.8 -1.404h -0.576v 2.916c 0 0.432 0.144 0.444 0.576 0.444h 1.596c 1.692 0 2.136 -0.624 2.316 -2.328h 0.3l -0.336 2.7h -6.756v -0.372c 1.044 0 1.236 -0.012 1.236 -0.54v -6.336c 0 -0.444 -0.012 -0.54 -1.236 -0.54v -0.372h 6.936l 0.504 3.096h -0.312c -0.324 -2.16 -0.876 -2.724 -2.628 -2.724h -1.524c -0.636 0 -0.672 0.06 -0.672 0.456v 3.228h 0.576c 1.428 0 1.8 -0.024 1.8 -1.404Z "/></symbol><symbol id="g6B2349AFA7C6B64B42981D2A9FFEEDEB" overflow="visible"><path d="M 0 0m 3.156 7.944c 0 0.216 -0.216 0.432 -0.432 0.432c -0.18 0 -0.312 -0.132 -0.36 -0.204l -1.44 -1.836l 0.204 -0.216l 1.824 1.464c 0.108 0.084 0.204 0.216 0.204 0.36Z m -2.76 -7.944v 0.372c 0.732 0 0.936 0.003386719 0.936 0.444v 3.372c 0 0.534339844 -0.132 0.612 -0.888 0.612v 0.372l 1.68 0.132v -4.488c 0 -0.4321875 0.18 -0.444 0.84 -0.444v -0.372c -0.276 0 -0.792 0.036 -1.26 0.036c -0.42 0 -1.02 -0.036 -1.308 -0.036Z "/></symbol><symbol id="gA7F4005FC6A956646F12A0D695777F2A" overflow="visible"><path d="M 0 0m 2.304 0.636c 0 0.348 -0.288 0.636 -0.636 0.636c -0.348 0 -0.636 -0.288 -0.636 -0.636c 0 -0.348 0.288 -0.636 0.636 -0.636c 0.348 0 0.636 0.288 0.636 0.636Z "/></symbol><symbol id="gE7A7D1A57783D8EC6567B8C2B4641127" overflow="visible"><path d="M 0 0m 0.336 4.8c 0.84 0 0.936 -0.06 0.936 -0.624v -5.64c 0 -0.48 -0.156 -0.492 -0.936 -0.492v -0.372c 0.276 0 1.176 0.036 1.344 0.036c 0.216 0 1.14 -0.036 1.356 -0.036v 0.372c -0.804 0 -0.936 0 -0.936 0.552v 2.112c 0.18 -0.432 0.804 -0.84 1.464 -0.84c 1.375242188 0 2.688 1.079298889 2.688 2.784c 0 1.404 -1.125503906 2.652 -2.496 2.652c -0.468 0 -1.068 -0.096 -1.692 -0.792v 0.792l -1.728 -0.132Z m 1.764 -3.576v 2.808c 0.288 0.528 0.828 0.96 1.56 0.96c 0.744 0 1.584 -0.828 1.584 -2.412c 0 -1.644230713 -0.984 -2.448 -1.704 -2.448c -0.948 0 -1.392 0.864 -1.44 1.092Z "/></symbol><symbol id="g93C2F0324F15D5528C025E1F92BF0503" overflow="visible"><path d="M 0 0m 3.264 3.072l -0.936 1.212c -0.092864319 0.120247559 -0.10996875 0.165304688 -0.10996875 0.235007813c 0 0.172617188 0.189857666 0.269654297 0.42196875 0.280992188v 0.372c -0.312 0 -0.876 -0.036 -1.32 -0.036c -0.444 0 -0.852 0.024 -1.116 0.036v -0.372c 0.552 0 0.838498169 -0.001156494 1.116 -0.36c 0.497138855 -0.642861328 0.98559375 -1.28240625 1.488 -1.92l -0.54 -0.696c -0.636 -0.78 -0.636 -0.792 -0.732 -0.876c -0.332062866 -0.290555054 -0.852 -0.552 -1.392 -0.576v -0.372c 0.220828125 0.005296875 0.695763245 0.036 1.032 0.036c 0.218517334 0 0.785280029 -0.036282166 1.064316467 -0.036282166c 0.013976257 0 0.027230896 0.000091003 0.039683533 0.000282166v 0.372c -0.212367737 0.027402283 -0.346110352 0.151542664 -0.346110352 0.345166809c 0 0.14554303 0.075567261 0.330345886 0.250110352 0.542833191l 0.828 1.008l 1.092 -1.452c 0.04253833 -0.056561646 0.068292847 -0.120488708 0.068292847 -0.169410278c 0 -0.196527832 -0.322602173 -0.274589722 -0.428292847 -0.274589722v -0.372c 0.324 0 0.996 0.036 1.272 0.036c 0.444 0 0.912 -0.036 1.176 -0.036v 0.372c -0.684 0 -0.87379834 0.025671021 -1.164 0.408c -0.517127197 0.690872864 -1.046452148 1.36954834 -1.584000366 2.04l 0.924 1.152c 0.645070313 0.80634375 1.2 0.792 1.608 0.828v 0.372c -0.216 -0.012 -0.612 -0.036 -1.008 -0.036c -0.396 0 -0.852 0.024 -1.128 0.036v -0.372c 0.171894653 -0.007813477 0.351418579 -0.13961499 0.351418579 -0.361900635c 0 -0.197917969 0 -0.197917969 -0.927418945 -1.366099365Z "/></symbol><symbol id="gFDC34893CADCDBE70366F73439ADDEFD" overflow="visible"><path d="M 0 0m 2.304 4.536c 0 0.348 -0.288 0.636 -0.636 0.636c -0.348 0 -0.636 -0.288 -0.636 -0.636c 0 -0.348 0.288 -0.636 0.636 -0.636c 0.348 0 0.636 0.288 0.636 0.636Z m 0 -3.9c 0 0.348 -0.288 0.636 -0.636 0.636c -0.348 0 -0.636 -0.288 -0.636 -0.636c 0 -0.348 0.288 -0.636 0.636 -0.636c 0.348 0 0.636 0.288 0.636 0.636Z "/></symbol></defs></svg>