<svg viewBox="0 0 595.275590551 841.88976378" width="595.275590551pt" height="841.88976378pt" xmlns="http://www.w3.org/2000/svg" xmlns:xlink="http://www.w3.org/1999/xlink" xmlns:h5="http://www.w3.org/1999/xhtml"><path fill="#ffffff" fill-rule="nonzero" d="M 0 0v 841.88976378h 595.275590551v -841.88976378Z "/><g transform="matrix(1 0 0 -1 213.813023622 445.368110236)"><use xlink:href="#g9862378345017DE86787DE243E602A1E" x="0" y="0" fill="#000000" fill-rule="nonzero"/><use xlink:href="#g4BF93456A0D3DC46F6A082573C2762A1" x="8.592" y="0" fill="#000000" fill-rule="nonzero"/><use xlink:href="#g66A23025AE2D48C32F16744CE430D59F" x="14.724" y="0" fill="#000000" fill-rule="nonzero"/><use xlink:href="#g81F82FB1373D507E562B36052E95BE89" x="18.408" y="0" fill="#000000" fill-rule="nonzero"/><use xlink:href="#g686C7BDF66B5D8774BD2B734555C848B" x="27.612" y="0" fill="#000000" fill-rule="nonzero"/><use xlink:href="#g29446BBBA1C2C2395681E49F77CC7524" x="35.58" y="0" fill="#000000" fill-rule="nonzero"/><use xlink:href="#g85DD6D0A955B0BC0EB141D2264B81FC3" x="41.712" y="0" fill="#000000" fill-rule="nonzero"/><use xlink:href="#g4129C09DD98C7788EFE11AC3412C3F34" x="46.776" y="0" fill="#000000" fill-rule="nonzero"/><use xlink:href="#g66A23025AE2D48C32F16744CE430D59F" x="56.592" y="0" fill="#000000" fill-rule="nonzero"/><use xlink:href="#g81F82FB1373D507E562B36052E95BE89" x="60.276" y="0" fill="#000000" fill-rule="nonzero"/><use xlink:href="#g39A13CDB4D57D93F6FFDC0D8CCC49ACC" x="69.48" y="0" fill="#000000" fill-rule="nonzero"/><use xlink:href="#gF39E2181DC6CA8AF10C1B2FC0830D36" x="75.612" y="0" fill="#000000" fill-rule="nonzero"/><use xlink:href="#g39A13CDB4D57D93F6FFDC0D8CCC49ACC" x="80.52" y="0" fill="#000000" fill-rule="nonzero"/><use xlink:href="#g66A23025AE2D48C32F16744CE430D59F" x="86.652" y="0" fill="#000000" fill-rule="nonzero"/><use xlink:href="#g1FAC62A9D0F3A8BBD429ADC1C08F91F6" x="90.336" y="0" fill="#000000" fill-rule="nonzero"/><use xlink:href="#g6AC0E471571BB200CB9BB922ED14B3EE" x="95.244" y="0" fill="#000000" fill-rule="nonzero"/><use xlink:href="#gEAAF9F0D2479A5557A04250D7AEA5295" x="101.376" y="0" fill="#000000" fill-rule="nonzero"/><use xlink:href="#gF39E2181DC6CA8AF10C1B2FC0830D36" x="105.36" y="0" fill="#000000" fill-rule="nonzero"/><use xlink:href="#g39A13CDB4D57D93F6FFDC0D8CCC49ACC" x="110.268" y="0" fill="#000000" fill-rule="nonzero"/><use xlink:href="#gEAAF9F0D2479A5557A04250D7AEA5295" x="120.696" y="0" fill="#000000" fill-rule="nonzero"/><use xlink:href="#g29446BBBA1C2C2395681E49F77CC7524" x="124.68" y="0" fill="#000000" fill-rule="nonzero"/><use xlink:href="#g73644F059AAF359B40F518248DDEC5B0" x="135.108" y="0" fill="#000000" fill-rule="nonzero"/><use xlink:href="#gFAE74613BA3792883BBA5D65597B004F" x="144.924" y="0" fill="#000000" fill-rule="nonzero"/><use xlink:href="#g38441407D9199EE83C08CF7E847495A7" x="155.052" y="0" fill="#000000" fill-rule="nonzero"/><use xlink:href="#g6AC0E471571BB200CB9BB922ED14B3EE" x="160.572" y="0" fill="#000000" fill-rule="nonzero"/><use xlink:href="#g85DD6D0A955B0BC0EB141D2264B81FC3" x="166.704" y="0" fill="#000000" fill-rule="nonzero"/><use xlink:href="#gF39E2181DC6CA8AF10C1B2FC0830D36" x="171.156" y="0" fill="#000000" fill-rule="nonzero"/><use xlink:href="#g20E6CD46C7FB2335971AD528D5E2A36A" x="176.676" y="0" fill="#000000" fill-rule="nonzero"/><use xlink:href="#gEAAF9F0D2479A5557A04250D7AEA5295" x="183.42" y="0" fill="#000000" fill-rule="nonzero"/><use xlink:href="#g81F82FB1373D507E562B36052E95BE89" x="187.404" y="0" fill="#000000" fill-rule="nonzero"/><use xlink:href="#gA3AB6A67F69F6C58AEF0389DD50B182F" x="192.312" y="0" fill="#000000" fill-rule="nonzero"/></g><g transform="matrix(1 0 0 -1 251.625023622 463.368110236)"><use xlink:href="#g686C7BDF66B5D8774BD2B734555C848B" x="0" y="0" fill="#000000" fill-rule="nonzero"/><use xlink:href="#g4BF93456A0D3DC46F6A082573C2762A1" x="7.968" y="0" fill="#000000" fill-rule="nonzero"/><use xlink:href="#g29446BBBA1C2C2395681E49F77CC7524" x="14.1" y="0" fill="#000000" fill-rule="nonzero"/><use xlink:href="#gEAAF9F0D2479A5557A04250D7AEA5295" x="24.528" y="0" fill="#000000" fill-rule="nonzero"/><use xlink:href="#g6AC0E471571BB200CB9BB922ED14B3EE" x="28.512" y="0" fill="#000000" fill-rule="nonzero"/><use xlink:href="#g945BB38831FF084553DFD1D4E5954761" x="34.644" y="0" fill="#000000" fill-rule="nonzero"/><use xlink:href="#g316C615BCC59FBA690455215F291C364" x="41.088" y="0" fill="#000000" fill-rule="nonzero"/><use xlink:href="#g4BF93456A0D3DC46F6A082573C2762A1" x="46.608" y="0" fill="#000000" fill-rule="nonzero"/><use xlink:href="#gEAAF9F0D2479A5557A04250D7AEA5295" x="52.74" y="0" fill="#000000" fill-rule="nonzero"/><use xlink:href="#g73644F059AAF359B40F518248DDEC5B0" x="61.02" y="0" fill="#000000" fill-rule="nonzero"/><use xlink:href="#gF39E2181DC6CA8AF10C1B2FC0830D36" x="70.836" y="0" fill="#000000" fill-rule="nonzero"/><use xlink:href="#gEAAF9F0D2479A5557A04250D7AEA5295" x="80.652" y="0" fill="#000000" fill-rule="nonzero"/><use xlink:href="#g29446BBBA1C2C2395681E49F77CC7524" x="84.636" y="0" fill="#000000" fill-rule="nonzero"/><use xlink:href="#g85DD6D0A955B0BC0EB141D2264B81FC3" x="95.064" y="0" fill="#000000" fill-rule="nonzero"/><use xlink:href="#gF39E2181DC6CA8AF10C1B2FC0830D36" x="99.516" y="0" fill="#000000" fill-rule="nonzero"/><use xlink:href="#g6AC0E471571BB200CB9BB922ED14B3EE" x="104.424" y="0" fill="#000000" fill-rule="nonzero"/><use xlink:href="#g39A13CDB4D57D93F6FFDC0D8CCC49ACC" x="110.556" y="0" fill="#000000" fill-rule="nonzero"/><use xlink:href="#gC818B97A2D75B517DBB892D75E6855DD" x="116.688" y="0" fill="#000000" fill-rule="nonzero"/></g><defs><symbol id="g9862378345017DE86787DE243E602A1E" overflow="visible"><path d="M 0 0m 9.3 5.676l 0.36 2.148c 0.012 0.048 0.012 0.108 0.012 0.156c 0 0.144 -0.108 0.144 -0.3 0.144h -6.156c -0.24 0 -0.276 0 -0.348 -0.216l -0.708 -2.148c -0.06 -0.156 -0.06 -0.204 -0.06 -0.204c 0 -0.132 0.144 -0.132 0.18 -0.132c 0.048 0 0.096 0 0.132 0.036c 0.024 0.024 0.036 0.036 0.156 0.348c 0.564 1.692 0.9 1.944 2.448 1.944h 0.408c 0.276 0 0.276 -0.048 0.276 -0.132c 0 -0.084 -0.024 -0.192 -0.048 -0.264l -1.608 -6.444c -0.108 -0.42 -0.216 -0.54 -1.272 -0.54h -0.192c -0.204 0 -0.336 0 -0.336 -0.228c 0 -0.144 0.144 -0.144 0.204 -0.144c 0.612 0 1.248 0.036 1.86 0.036c 0.624 0 1.272 -0.036 1.884 -0.036c 0.108 0 0.252 0 0.252 0.24c 0 0.132 -0.12 0.132 -0.3 0.132h -0.18c -0.192 0 -0.564 0.024 -0.6 0.024c -0.336 0.036 -0.396 0.084 -0.396 0.252c 0 0.036 0 0.06 0.048 0.228l 1.608 6.456c 0.084 0.36 0.18 0.384 0.276 0.396c 0.096 0.024 0.42 0.024 0.624 0.024c 1.248 0 1.524 -0.168 1.524 -0.912c 0 -0.144 0 -0.372 -0.12 -1.08c -0.024 -0.132 -0.024 -0.18 -0.024 -0.18c 0 -0.156 0.12 -0.156 0.18 -0.156c 0.156 0 0.18 0.036 0.216 0.252Z "/></symbol><symbol id="g4BF93456A0D3DC46F6A082573C2762A1" overflow="visible"><path d="M 0 0m 6.42 1.716c 0 0.12 -0.096 0.12 -0.18 0.12c -0.156 0 -0.156 -0.024 -0.204 -0.204c -0.096 -0.324 -0.42 -1.5 -1.116 -1.5c -0.252 0 -0.264 0.18 -0.264 0.348c 0 0.3 0.12 0.612 0.216 0.9c 0.24 0.636 0.732 1.98 0.732 2.676c 0 0.984 -0.66 1.248 -1.248 1.248c -0.804 0 -1.224 -0.42 -1.596 -0.78l 0.876 3.504c 0.012 0.036 0.036 0.156 0.036 0.156c 0 0.108 -0.072 0.144 -0.168 0.144c -0.036 0 -0.156 -0.012 -0.192 -0.024l -1.188 -0.096c -0.144 -0.012 -0.276 -0.024 -0.276 -0.252c 0 -0.132 0.12 -0.132 0.288 -0.132c 0.576 0 0.6 -0.084 0.6 -0.204c 0 -0.036 -0.036 -0.204 -0.036 -0.204l -1.776 -7.08c -0.012 -0.024 -0.024 -0.156 -0.024 -0.156c 0 -0.132 0.108 -0.312 0.336 -0.312c 0.252 0 0.408 0.204 0.444 0.336l 0.516 2.076c 0.06 0.264 0.132 0.516 0.192 0.78c 0.108 0.432 0.12 0.456 0.336 0.84c 0.24 0.384 0.756 1.14 1.596 1.14c 0.528 0 0.552 -0.54 0.552 -0.792c 0 -0.744 -0.528 -2.172 -0.696 -2.652c -0.156 -0.408 -0.192 -0.516 -0.192 -0.768c 0 -0.528 0.336 -0.96 0.912 -0.96c 1.116 0 1.524 1.788 1.524 1.848Z "/></symbol><symbol id="g66A23025AE2D48C32F16744CE430D59F" overflow="visible"><path d="M 0 0m 3.972 1.716c 0 0.12 -0.096 0.12 -0.18 0.12c -0.156 0 -0.156 -0.024 -0.204 -0.204c -0.096 -0.348 -0.42 -1.5 -1.116 -1.5c -0.096 0 -0.264 0.012 -0.264 0.336c 0 0.312 0.156 0.708 0.312 1.152l 0.768 2.052c 0.12 0.348 0.144 0.444 0.144 0.672c 0 0.66 -0.456 0.96 -0.9 0.96c -1.128 0 -1.536 -1.788 -1.536 -1.848c 0 -0.12 0.12 -0.12 0.18 -0.12c 0.156 0 0.168 0.024 0.216 0.192c 0.108 0.396 0.42 1.512 1.116 1.512c 0.132 0 0.264 -0.06 0.264 -0.336c 0 -0.288 -0.132 -0.636 -0.216 -0.864l -0.36 -0.996l -0.444 -1.188c -0.168 -0.456 -0.216 -0.588 -0.216 -0.828c 0 -0.468 0.288 -0.96 0.912 -0.96c 1.128 0 1.524 1.8 1.524 1.848Z m 0.324 5.616c 0 0.252 -0.18 0.516 -0.54 0.516c -0.384 0 -0.768 -0.372 -0.768 -0.756c 0 -0.264 0.192 -0.516 0.54 -0.516c 0.384 0 0.768 0.372 0.768 0.756Z "/></symbol><symbol id="g81F82FB1373D507E562B36052E95BE89" overflow="visible"><path d="M 0 0m 4.716 1.884c 0 1.044 -0.936 1.26 -1.428 1.368c -0.336 0.072 -0.768 0.168 -0.768 0.684c 0 0.288 0.252 1.104 1.212 1.104c 0.324 0 0.768 -0.12 0.9 -0.588c -0.384 -0.048 -0.48 -0.372 -0.48 -0.492c 0 -0.132 0.072 -0.336 0.36 -0.336c 0.204 0 0.516 0.144 0.516 0.66c 0 0.552 -0.492 1.02 -1.284 1.02c -1.404 0 -1.896 -1.152 -1.896 -1.776c 0 -0.924 0.78 -1.092 1.116 -1.164c 0.528 -0.12 1.068 -0.24 1.068 -0.888c 0 -0.384 -0.324 -1.344 -1.56 -1.344c -0.264 0 -0.96 0.06 -1.152 0.672c 0.612 0.06 0.612 0.588 0.612 0.588c 0 0.228 -0.156 0.384 -0.408 0.384c -0.276 0 -0.612 -0.204 -0.612 -0.744c 0 -0.732 0.696 -1.164 1.548 -1.164c 1.8 0 2.256 1.464 2.256 2.016Z "/></symbol><symbol id="g686C7BDF66B5D8774BD2B734555C848B" overflow="visible"><path d="M 0 0m 8.364 4.512c 0 0.42 -0.144 0.792 -0.492 0.792c -0.276 0 -0.576 -0.276 -0.576 -0.552c 0 -0.156 0.084 -0.24 0.156 -0.324c 0.288 -0.312 0.324 -0.696 0.324 -0.948c 0 -0.48 -0.384 -1.74 -0.588 -2.232c -0.264 -0.624 -0.648 -1.116 -1.2 -1.116c -0.6 0 -0.792 0.492 -0.792 0.996c 0 0.108 0.012 0.396 0.144 0.924l 0.504 2.016c 0.072 0.264 0.192 0.744 0.192 0.792c 0 0.132 -0.096 0.312 -0.336 0.312c -0.348 0 -0.432 -0.324 -0.456 -0.42l -0.684 -2.736c -0.084 -0.336 -0.096 -0.588 -0.096 -0.756c 0 -0.132 -0.372 -1.128 -1.008 -1.128c -0.84 0 -0.84 0.888 -0.84 1.044c 0 0.648 0.312 1.536 0.684 2.52c 0.084 0.228 0.144 0.408 0.144 0.636c 0 0.6 -0.396 0.972 -0.912 0.972c -1.116 0 -1.536 -1.776 -1.536 -1.848c 0 -0.12 0.12 -0.12 0.18 -0.12c 0.156 0 0.168 0.024 0.216 0.192c 0.096 0.372 0.42 1.512 1.116 1.512c 0.132 0 0.264 -0.036 0.264 -0.348c 0 -0.288 -0.12 -0.612 -0.288 -1.08c -0.6 -1.632 -0.6 -1.944 -0.6 -2.268c 0 -0.408 0.096 -0.816 0.408 -1.104c 0.384 -0.336 0.924 -0.372 1.128 -0.372c 0.384 0 0.804 0.156 1.164 0.768c 0.18 -0.444 0.66 -0.768 1.368 -0.768c 0.72 0 1.224 0.492 1.584 1.344c 0.36 0.816 0.828 2.664 0.828 3.3Z "/></symbol><symbol id="g29446BBBA1C2C2395681E49F77CC7524" overflow="visible"><path d="M 0 0m 6.108 3.336c 0 1.14 -0.708 1.968 -1.752 1.968c -1.488 0 -3.036 -1.704 -3.036 -3.456c 0 -1.236 0.756 -1.98 1.752 -1.98c 1.488 0 3.036 1.704 3.036 3.468Z m -0.84 0.468c 0 -0.516 -0.264 -1.752 -0.648 -2.472c -0.348 -0.66 -0.96 -1.2 -1.548 -1.2c -0.468 0 -0.912 0.372 -0.912 1.236c 0 0.6 0.312 1.932 0.696 2.58c 0.444 0.732 1.02 1.092 1.488 1.092c 0.588 0 0.924 -0.528 0.924 -1.236Z "/></symbol><symbol id="g85DD6D0A955B0BC0EB141D2264B81FC3" overflow="visible"><path d="M 0 0m 5.868 4.548c 0 0.624 -0.78 0.756 -1.176 0.756c -0.828 0 -1.26 -0.6 -1.452 -0.864c -0.132 0.636 -0.6 0.864 -0.996 0.864c -0.432 0 -0.672 -0.276 -0.864 -0.636c -0.228 -0.48 -0.384 -1.212 -0.384 -1.212c 0 -0.12 0.12 -0.12 0.18 -0.12c 0.156 0 0.168 0.012 0.228 0.276c 0.216 0.84 0.444 1.428 0.816 1.428c 0.312 0 0.312 -0.348 0.312 -0.48c 0 -0.192 -0.036 -0.42 -0.084 -0.612l -0.9 -3.6c -0.024 -0.072 -0.036 -0.132 -0.036 -0.168c 0 -0.132 0.096 -0.312 0.336 -0.312c 0.36 0 0.444 0.348 0.468 0.444l 0.78 3.144c 0.012 0.036 0.552 1.584 1.584 1.584c 0.06 0 0.396 0 0.636 -0.168c -0.42 -0.132 -0.456 -0.516 -0.456 -0.576c 0 -0.156 0.108 -0.384 0.42 -0.384c 0.216 0 0.588 0.168 0.588 0.636Z "/></symbol><symbol id="g4129C09DD98C7788EFE11AC3412C3F34" overflow="visible"><path d="M 0 0m 5.808 1.716c 0 0.12 -0.096 0.12 -0.18 0.12c -0.144 0 -0.156 -0.012 -0.228 -0.276c -0.156 -0.612 -0.384 -1.428 -0.912 -1.428c -0.324 0 -0.348 0.276 -0.348 0.516c 0 0.276 0.084 0.612 0.096 0.672c 0.06 0.252 0.06 0.264 0.06 0.42c 0 0.816 -0.84 1.14 -1.596 1.248c 0.276 0.168 0.528 0.42 0.852 0.792c 0.624 0.708 1.092 1.26 1.692 1.26c 0.228 0 0.324 -0.144 0.324 -0.144c -0.504 -0.084 -0.564 -0.504 -0.564 -0.6c 0 -0.156 0.108 -0.384 0.42 -0.384c 0.264 0 0.6 0.216 0.6 0.672c 0 0.312 -0.216 0.72 -0.756 0.72c -0.636 0 -1.152 -0.504 -1.56 -0.984c -0.684 -0.792 -0.876 -0.984 -1.296 -1.188l 1.224 4.896c 0.012 0.036 0.036 0.156 0.036 0.156c 0 0.108 -0.072 0.144 -0.168 0.144c -0.036 0 -0.156 -0.012 -0.192 -0.024l -1.188 -0.096c -0.144 -0.012 -0.276 -0.024 -0.276 -0.252c 0 -0.132 0.12 -0.132 0.288 -0.132c 0.576 0 0.6 -0.084 0.6 -0.204c 0 -0.036 -0.036 -0.204 -0.036 -0.204l -1.776 -7.08c -0.012 -0.024 -0.024 -0.156 -0.024 -0.156c 0 -0.132 0.108 -0.312 0.336 -0.312c 0.36 0 0.444 0.336 0.468 0.444l 0.612 2.436c 0.444 -0.06 1.212 -0.312 1.212 -1.008c 0 -0.084 0 -0.132 -0.036 -0.3c -0.048 -0.204 -0.048 -0.288 -0.048 -0.408c 0 -0.864 0.564 -1.164 1.008 -1.164c 0.528 0 0.792 0.396 0.924 0.624c 0.264 0.456 0.432 1.188 0.432 1.224Z "/></symbol><symbol id="g39A13CDB4D57D93F6FFDC0D8CCC49ACC" overflow="visible"><path d="M 0 0m 6.42 1.716c 0 0.12 -0.096 0.12 -0.18 0.12c -0.144 0 -0.156 -0.012 -0.228 -0.276c -0.168 -0.672 -0.396 -1.428 -0.804 -1.428c -0.312 0 -0.312 0.324 -0.312 0.492c 0 0.084 0 0.264 0.072 0.552l 1.716 6.852c 0.012 0.036 0.036 0.156 0.036 0.156c 0 0.108 -0.072 0.144 -0.168 0.144c -0.036 0 -0.156 -0.012 -0.192 -0.024l -1.188 -0.096c -0.144 -0.012 -0.276 -0.024 -0.276 -0.252c 0 -0.132 0.12 -0.132 0.288 -0.132c 0.576 0 0.6 -0.084 0.6 -0.204c 0 -0.036 -0.036 -0.204 -0.036 -0.204l -0.696 -2.808c -0.18 0.372 -0.504 0.696 -1.008 0.696c -1.332 0 -2.748 -1.824 -2.748 -3.576c 0 -1.02 0.552 -1.86 1.452 -1.86c 0.432 0 0.96 0.252 1.44 0.84c 0.132 -0.588 0.576 -0.84 0.996 -0.84c 0.444 0 0.696 0.3 0.876 0.672c 0.216 0.456 0.36 1.176 0.36 1.176Z m -2.16 -0.252c -0.096 -0.372 -0.828 -1.332 -1.488 -1.332c -0.564 0 -0.66 0.708 -0.66 1.068c 0 0.6 0.372 2.004 0.588 2.508c 0.3 0.732 0.852 1.332 1.344 1.332c 0.096 0 0.372 -0.012 0.588 -0.348c 0.12 -0.192 0.24 -0.54 0.24 -0.768c 0 -0.036 -0.012 -0.084 -0.036 -0.156Z "/></symbol><symbol id="gF39E2181DC6CA8AF10C1B2FC0830D36" overflow="visible"><path d="M 0 0m 5.616 1.248c 0 0.06 -0.096 0.192 -0.192 0.192c -0.048 0 -0.06 -0.012 -0.156 -0.132c -0.888 -1.128 -1.956 -1.176 -2.16 -1.176c -0.78 0 -0.912 0.852 -0.912 1.32c 0 0.456 0.12 0.996 0.204 1.32h 0.468c 0.36 0 1.164 0.036 1.74 0.264c 0.948 0.384 0.948 1.164 0.948 1.248c 0 0.552 -0.444 1.02 -1.212 1.02c -1.26 0 -2.976 -1.212 -2.976 -3.336c 0 -1.08 0.576 -2.1 1.716 -2.1c 1.536 0 2.532 1.2 2.532 1.38Z m -0.516 3.06c 0 -1.272 -1.98 -1.272 -2.376 -1.272h -0.252c 0.516 1.968 1.752 2.004 1.872 2.004c 0.48 0 0.756 -0.324 0.756 -0.732Z "/></symbol><symbol id="g1FAC62A9D0F3A8BBD429ADC1C08F91F6" overflow="visible"><path d="M 0 0m 5.616 1.248c 0 0.06 -0.096 0.192 -0.192 0.192c -0.048 0 -0.06 -0.012 -0.156 -0.132c -0.888 -1.128 -1.956 -1.176 -2.16 -1.176c -0.648 0 -0.948 0.54 -0.948 1.236c 0 0.636 0.324 1.896 0.636 2.472c 0.432 0.78 1.032 1.2 1.572 1.2c 0.132 0 0.672 -0.024 0.852 -0.516c -0.6 -0.072 -0.6 -0.588 -0.6 -0.588c 0 -0.192 0.132 -0.384 0.408 -0.384c 0.324 0 0.612 0.264 0.612 0.72c 0 0.588 -0.516 1.032 -1.284 1.032c -1.488 0 -3.036 -1.704 -3.036 -3.456c 0 -1.188 0.708 -1.98 1.764 -1.98c 1.536 0 2.532 1.2 2.532 1.38Z "/></symbol><symbol id="g6AC0E471571BB200CB9BB922ED14B3EE" overflow="visible"><path d="M 0 0m 6.3 1.716c 0 0.12 -0.096 0.12 -0.18 0.12c -0.144 0 -0.156 -0.012 -0.228 -0.276c -0.168 -0.672 -0.396 -1.428 -0.804 -1.428c -0.312 0 -0.312 0.324 -0.312 0.492c 0 0.084 0 0.276 0.084 0.612l 0.816 3.264c 0.048 0.168 0.048 0.192 0.048 0.252c 0 0.252 -0.204 0.312 -0.324 0.312c -0.384 0 -0.468 -0.408 -0.48 -0.468c -0.228 0.516 -0.612 0.708 -0.996 0.708c -1.332 0 -2.748 -1.824 -2.748 -3.576c 0 -1.02 0.552 -1.86 1.452 -1.86c 0.432 0 0.96 0.252 1.44 0.84c 0.132 -0.588 0.576 -0.84 0.996 -0.84c 0.444 0 0.696 0.3 0.876 0.672c 0.216 0.456 0.36 1.176 0.36 1.176Z m -2.148 -0.228c -0.096 -0.384 -0.84 -1.356 -1.5 -1.356c -0.564 0 -0.66 0.708 -0.66 1.068c 0 0.6 0.372 2.004 0.588 2.508c 0.3 0.732 0.852 1.332 1.344 1.332c 0.528 0 0.828 -0.624 0.828 -1.128c 0 0 -0.012 -0.084 -0.036 -0.156Z "/></symbol><symbol id="gEAAF9F0D2479A5557A04250D7AEA5295" overflow="visible"><path d="M 0 0m 4.272 1.716c 0 0.12 -0.096 0.12 -0.18 0.12c -0.144 0 -0.144 -0.012 -0.24 -0.228c -0.216 -0.576 -0.696 -1.476 -1.38 -1.476c -0.324 0 -0.324 0.3 -0.324 0.492c 0 0.084 0 0.276 0.084 0.612l 0.888 3.564h 1.02c 0.204 0 0.336 0 0.336 0.228c 0 0.144 -0.108 0.144 -0.3 0.144h -0.96l 0.444 1.776c 0.048 0.168 0.048 0.192 0.048 0.252c 0 0.252 -0.204 0.312 -0.324 0.312c -0.3 0 -0.42 -0.252 -0.468 -0.432l -0.468 -1.908h -1.02c -0.204 0 -0.336 0 -0.336 -0.228c 0 -0.144 0.108 -0.144 0.3 -0.144h 0.96l -0.864 -3.444c -0.012 -0.048 -0.06 -0.24 -0.06 -0.408c 0 -0.6 0.396 -1.08 1.02 -1.08c 1.212 0 1.824 1.788 1.824 1.848Z "/></symbol><symbol id="g73644F059AAF359B40F518248DDEC5B0" overflow="visible"><path d="M 0 0m 10.104 1.716c 0 0.12 -0.096 0.12 -0.18 0.12c -0.156 0 -0.156 -0.024 -0.204 -0.204c -0.096 -0.324 -0.42 -1.5 -1.116 -1.5c -0.252 0 -0.264 0.18 -0.264 0.348c 0 0.3 0.12 0.612 0.216 0.9c 0.24 0.636 0.732 1.98 0.732 2.676c 0 1.008 -0.696 1.248 -1.26 1.248c -0.84 0 -1.44 -0.528 -1.8 -1.056c -0.096 0.828 -0.72 1.056 -1.26 1.056c -0.72 0 -1.308 -0.396 -1.716 -0.948c -0.084 0.588 -0.492 0.948 -1.008 0.948c -0.432 0 -0.672 -0.276 -0.864 -0.636c -0.228 -0.48 -0.384 -1.212 -0.384 -1.212c 0 -0.12 0.12 -0.12 0.18 -0.12c 0.156 0 0.168 0.012 0.228 0.276c 0.216 0.84 0.444 1.428 0.816 1.428c 0.312 0 0.312 -0.348 0.312 -0.48c 0 -0.192 -0.036 -0.42 -0.084 -0.612l -0.9 -3.6c -0.024 -0.072 -0.036 -0.132 -0.036 -0.168c 0 -0.132 0.096 -0.312 0.336 -0.312c 0.144 0 0.348 0.084 0.432 0.312l 0.48 1.92c 0.06 0.264 0.132 0.516 0.192 0.78c 0.156 0.588 0.156 0.612 0.3 0.864c 0.348 0.6 0.864 1.296 1.692 1.296c 0.552 0 0.552 -0.612 0.552 -0.792c 0 -0.324 -0.084 -0.672 -0.108 -0.78l -0.78 -3.12c -0.024 -0.072 -0.036 -0.132 -0.036 -0.168c 0 -0.132 0.096 -0.312 0.336 -0.312c 0.144 0 0.348 0.084 0.432 0.312l 0.48 1.92c 0.06 0.264 0.132 0.516 0.192 0.78c 0.156 0.588 0.156 0.612 0.3 0.864c 0.348 0.6 0.864 1.296 1.692 1.296c 0.552 0 0.552 -0.612 0.552 -0.792c 0 -0.744 -0.528 -2.172 -0.696 -2.652c -0.156 -0.408 -0.192 -0.516 -0.192 -0.768c 0 -0.528 0.336 -0.96 0.912 -0.96c 1.116 0 1.524 1.788 1.524 1.848Z "/></symbol><symbol id="gFAE74613BA3792883BBA5D65597B004F" overflow="visible"><path d="M 0 0m 4.98 -0.036l 1.176 4.728c 0.012 0.072 0.036 0.132 0.036 0.168c 0 0.132 -0.096 0.312 -0.336 0.312c -0.36 0 -0.444 -0.348 -0.468 -0.444l -0.876 -3.528c -0.084 -0.348 -0.564 -1.068 -1.272 -1.068c -0.54 0 -0.648 0.528 -0.648 0.924c 0 0.732 0.396 1.812 0.696 2.628c 0.096 0.252 0.156 0.42 0.156 0.648c 0 0.6 -0.396 0.972 -0.912 0.972c -1.116 0 -1.536 -1.776 -1.536 -1.848c 0 -0.12 0.12 -0.12 0.18 -0.12c 0.156 0 0.168 0.024 0.216 0.192c 0.096 0.372 0.42 1.512 1.116 1.512c 0.132 0 0.264 -0.036 0.264 -0.348c 0 -0.288 -0.12 -0.612 -0.288 -1.08c -0.312 -0.84 -0.624 -1.728 -0.624 -2.352c 0 -1.044 0.696 -1.392 1.344 -1.392c 0.552 0 0.924 0.288 1.08 0.444c -0.456 -1.98 -1.344 -2.508 -1.944 -2.508c -0.576 0 -0.744 0.456 -0.744 0.516c 0 0 0.012 0.024 0.096 0.036c 0.372 0.06 0.516 0.384 0.516 0.576c 0 0.252 -0.192 0.384 -0.408 0.384c -0.144 0 -0.612 -0.072 -0.612 -0.744c 0 -0.624 0.492 -1.032 1.152 -1.032c 1.248 0 2.34 1.236 2.64 2.424Z "/></symbol><symbol id="g38441407D9199EE83C08CF7E847495A7" overflow="visible"><path d="M 0 0m 6.12 3.432c 0 1.284 -0.72 1.872 -1.44 1.872c -0.588 0 -1.104 -0.432 -1.452 -0.84c -0.144 0.696 -0.684 0.84 -0.984 0.84c -0.432 0 -0.672 -0.276 -0.864 -0.636c -0.228 -0.48 -0.384 -1.212 -0.384 -1.212c 0 -0.12 0.12 -0.12 0.18 -0.12c 0.156 0 0.168 0.012 0.228 0.276c 0.216 0.84 0.444 1.428 0.816 1.428c 0.312 0 0.312 -0.348 0.312 -0.48c 0 -0.072 0 -0.264 -0.084 -0.6l -1.368 -5.496c -0.096 -0.372 -0.192 -0.408 -0.66 -0.42c -0.108 0 -0.252 0 -0.252 -0.228c 0 -0.084 0.06 -0.144 0.144 -0.144c 0.324 0 0.672 0.036 1.008 0.036c 0.384 0 0.792 -0.036 1.164 -0.036c 0.072 0 0.228 0 0.228 0.228c 0 0.144 -0.12 0.144 -0.288 0.144c -0.612 0 -0.612 0.072 -0.612 0.192c 0 0.072 0.084 0.384 0.132 0.576l 0.432 1.752c 0.084 -0.204 0.384 -0.696 1.008 -0.696c 1.308 0 2.736 1.776 2.736 3.564Z m -1.476 -2.16c -0.144 -0.3 -0.66 -1.14 -1.272 -1.14c -0.696 0 -0.816 1.02 -0.816 1.116c 0 0.036 0.012 0.072 0.036 0.168l 0.564 2.268c 0.096 0.408 0.84 1.356 1.5 1.356c 0.54 0 0.66 -0.684 0.66 -1.068c 0 -0.504 -0.324 -1.932 -0.672 -2.7Z "/></symbol><symbol id="g20E6CD46C7FB2335971AD528D5E2A36A" overflow="visible"><path d="M 0 0m 7.032 1.716c 0 0.12 -0.096 0.12 -0.18 0.12c -0.156 0 -0.156 -0.024 -0.204 -0.204c -0.096 -0.324 -0.42 -1.5 -1.116 -1.5c -0.252 0 -0.264 0.18 -0.264 0.348c 0 0.3 0.12 0.612 0.216 0.9c 0.24 0.636 0.732 1.98 0.732 2.676c 0 0.984 -0.66 1.248 -1.248 1.248c -0.984 0 -1.56 -0.72 -1.716 -0.948c -0.084 0.588 -0.492 0.948 -1.008 0.948c -0.432 0 -0.672 -0.276 -0.864 -0.636c -0.228 -0.48 -0.384 -1.212 -0.384 -1.212c 0 -0.12 0.12 -0.12 0.18 -0.12c 0.156 0 0.168 0.012 0.228 0.276c 0.216 0.84 0.444 1.428 0.816 1.428c 0.312 0 0.312 -0.348 0.312 -0.48c 0 -0.192 -0.036 -0.42 -0.084 -0.612l -0.9 -3.6c -0.024 -0.072 -0.036 -0.132 -0.036 -0.168c 0 -0.132 0.096 -0.312 0.336 -0.312c 0.144 0 0.348 0.084 0.432 0.312l 0.48 1.92c 0.06 0.264 0.132 0.516 0.192 0.78c 0.156 0.612 0.156 0.624 0.36 0.972c 0.168 0.288 0.708 1.188 1.62 1.188c 0.528 0 0.552 -0.54 0.552 -0.792c 0 -0.744 -0.528 -2.172 -0.696 -2.652c -0.156 -0.408 -0.192 -0.516 -0.192 -0.768c 0 -0.528 0.336 -0.96 0.912 -0.96c 1.116 0 1.524 1.788 1.524 1.848Z "/></symbol><symbol id="gA3AB6A67F69F6C58AEF0389DD50B182F" overflow="visible"><path d="M 0 0m 2.688 0.564c 0 0.396 -0.168 0.708 -0.552 0.708c -0.48 0 -0.78 -0.42 -0.78 -0.768c 0 -0.384 0.276 -0.504 0.528 -0.504c 0.24 0 0.432 0.132 0.492 0.18c -0.18 -0.924 -0.78 -1.692 -1.344 -2.172c -0.144 -0.144 -0.156 -0.156 -0.156 -0.204c 0 -0.036 0.036 -0.12 0.12 -0.12c 0.216 0 1.692 1.452 1.692 2.88Z "/></symbol><symbol id="g945BB38831FF084553DFD1D4E5954761" overflow="visible"><path d="M 0 0m 6.732 1.716c 0 0.12 -0.096 0.12 -0.18 0.12c -0.144 0 -0.156 -0.012 -0.228 -0.276c -0.168 -0.672 -0.396 -1.428 -0.804 -1.428c -0.312 0 -0.312 0.324 -0.312 0.492c 0 0.084 0 0.276 0.084 0.612l 0.864 3.456c 0.024 0.072 0.036 0.132 0.036 0.168c 0 0.132 -0.096 0.312 -0.336 0.312c -0.36 0 -0.444 -0.348 -0.468 -0.444l -0.876 -3.504c -0.06 -0.216 -0.06 -0.24 -0.168 -0.396c -0.228 -0.336 -0.576 -0.696 -1.104 -0.696c -0.54 0 -0.648 0.528 -0.648 0.924c 0 0.732 0.396 1.812 0.696 2.628c 0.096 0.252 0.156 0.42 0.156 0.648c 0 0.6 -0.396 0.972 -0.912 0.972c -1.116 0 -1.536 -1.776 -1.536 -1.848c 0 -0.12 0.12 -0.12 0.18 -0.12c 0.156 0 0.168 0.024 0.216 0.192c 0.096 0.372 0.42 1.512 1.116 1.512c 0.132 0 0.264 -0.036 0.264 -0.348c 0 -0.288 -0.12 -0.612 -0.288 -1.08c -0.312 -0.84 -0.624 -1.728 -0.624 -2.352c 0 -1.044 0.696 -1.392 1.344 -1.392c 0.636 0 1.044 0.36 1.332 0.72c 0.216 -0.648 0.732 -0.72 0.96 -0.72c 0.444 0 0.696 0.3 0.876 0.672c 0.216 0.456 0.36 1.176 0.36 1.176Z "/></symbol><symbol id="g316C615BCC59FBA690455215F291C364" overflow="visible"><path d="M 0 0m 4.488 -0.756l 1.308 5.256c 0.048 0.18 0.048 0.204 0.048 0.252c 0 0.252 -0.204 0.312 -0.324 0.312c -0.144 0 -0.42 -0.096 -0.468 -0.444c -0.168 0.348 -0.492 0.684 -1.008 0.684c -1.344 0 -2.724 -1.776 -2.724 -3.468c 0 -1.02 0.564 -1.836 1.464 -1.836c 0.612 0 1.128 0.492 1.272 0.636l -0.252 -1.008c -0.144 -0.6 -0.216 -0.852 -0.552 -1.26c -0.48 -0.564 -0.96 -0.564 -1.14 -0.564c -0.156 0 -0.528 0 -0.852 0.132c 0.24 0.096 0.384 0.348 0.384 0.552c 0 0.156 -0.108 0.384 -0.42 0.384c -0.216 0 -0.588 -0.168 -0.588 -0.636c 0 -0.48 0.444 -0.696 1.452 -0.696c 1.26 0 2.172 0.792 2.4 1.704Z m -0.192 2.34c -0.096 -0.384 -0.828 -1.32 -1.488 -1.32c -0.648 0 -0.672 0.912 -0.672 1.044c 0 0.576 0.36 1.98 0.612 2.544c 0.3 0.648 0.828 1.188 1.296 1.188c 0.72 0 0.828 -1.008 0.828 -1.104l -0.036 -0.168Z "/></symbol><symbol id="gC818B97A2D75B517DBB892D75E6855DD" overflow="visible"><path d="M 0 0m 2.664 0.756c 0 0.264 -0.192 0.516 -0.528 0.516c -0.384 0 -0.78 -0.36 -0.78 -0.756c 0 -0.312 0.216 -0.516 0.528 -0.516c 0.408 0 0.78 0.396 0.78 0.756Z "/></symbol></defs></svg>