<svg viewBox="0 0 595.275590551 841.88976378" width="595.275590551pt" height="841.88976378pt" xmlns="http://www.w3.org/2000/svg" xmlns:xlink="http://www.w3.org/1999/xlink" xmlns:h5="http://www.w3.org/1999/xhtml"><path fill="#ffffff" fill-rule="nonzero" d="M 0 0v 841.88976378h 595.275590551v -841.88976378Z "/><g transform="matrix(1 0 0 -1 533.582677165 63.522913386)"><use xlink:href="#g1E02D30119FD88A09826855BA16BD87F" x="0" y="0" fill="#000000" fill-rule="nonzero"/></g><g transform="translate(285.51674739 85.039370079)"><g transform="matrix(1 0 0 -1 0 16.462090848)"><use xlink:href="#g254AFE515A874C7A854056835DCCDC5E" x="0" y="0" fill="#000000" fill-rule="nonzero"/><use xlink:href="#gAEB94C302EF449E4E75AA9C9FC4FF80B" x="6.594324576" y="0" fill="#000000" fill-rule="nonzero"/><use xlink:href="#gD446BD286B24575A7FA0AF43645CA7F1" x="18.85787064" y="0" fill="#000000" fill-rule="nonzero"/><use xlink:href="#g952AB922520C46AD5FF3ECB951166C4" x="31.121416704" y="0" fill="#000000" fill-rule="nonzero"/><use xlink:href="#gC4DE9373698777B9AD96B201F2E5E2DA" x="41.653359552" y="0" fill="#000000" fill-rule="nonzero"/></g></g><g transform="translate(85.039370079 147.501460927)"><g transform="matrix(1 0 0 -1 0 12)"><use xlink:href="#g1BCD6CD2240A20D146CA5A27E65F068E" x="0" y="0" fill="#000000" fill-rule="nonzero"/><use xlink:href="#g590E34C4350A928971F5F4542AB11ED" x="8.664" y="0" fill="#000000" fill-rule="nonzero"/><use xlink:href="#gA21E4FD43EFDDC1EE5DCC7F60B4CDFF5" x="13.992" y="0" fill="#000000" fill-rule="nonzero"/><use xlink:href="#g745395C0F4BBBD22FBCD0EB6C8DD2449" x="18.696" y="0" fill="#000000" fill-rule="nonzero"/><use xlink:href="#g413F868FEE821159D2608B7C80AAF0A5" x="24.696" y="0" fill="#000000" fill-rule="nonzero"/><use xlink:href="#g356CD5BAD6FF1CDC4BE30D8539A232C0" x="31.368" y="0" fill="#000000" fill-rule="nonzero"/><use xlink:href="#g1B66C084C32E655684B81A6854298314" x="37.368" y="0" fill="#000000" fill-rule="nonzero"/><use xlink:href="#gA549CC0003F96337A5E4FE9ECB9C7E0D" x="44.04" y="0" fill="#000000" fill-rule="nonzero"/><use xlink:href="#g93AF8C8216FD4BF7B51F57176E45FEF8" x="48.708" y="0" fill="#000000" fill-rule="nonzero"/><use xlink:href="#g6D4E56BAB6F75D3900BC9B686CF82962" x="52.044" y="0" fill="#000000" fill-rule="nonzero"/><use xlink:href="#g3326D56A821F61AB0ABDC278B73E23DD" x="57.372" y="0" fill="#000000" fill-rule="nonzero"/><use xlink:href="#g9059D20A265CEB97231BB4D1246B0FFC" x="62.1" y="0" fill="#000000" fill-rule="nonzero"/></g><g transform="matrix(1 0 0 -1 69.432 12)"><use xlink:href="#g5C49B726A32766B0AACD449BB2C994B6" x="0" y="0" fill="oklch(39.8% 0.195 -82.634)" fill-rule="nonzero"/></g><a transform="translate(69.432 -3)"><rect width="6" height="18" fill="transparent" stroke="none"/></a><g transform="matrix(1 0 0 -1 75.432 12)"><use xlink:href="#g9059D20A265CEB97231BB4D1246B0FFC" x="0" y="0" fill="#000000" fill-rule="nonzero"/></g><g transform="matrix(1 0 0 -1 82.764 12)"><use xlink:href="#g682E8094D0766A61BC97B76899B222A5" x="0" y="0" fill="oklch(39.8% 0.195 -82.634)" fill-rule="nonzero"/></g><a transform="translate(82.764 -3)"><rect width="6" height="18" fill="transparent" stroke="none"/></a><g transform="matrix(1 0 0 -1 88.764 12)"><use xlink:href="#gDD15D207966C17A077B531963412DBDD" x="0" y="0" fill="#000000" fill-rule="nonzero"/></g><g transform="matrix(1 0 0 -1 92.76 12)"><use xlink:href="#g7D94975EA46920EFF524E421E0FC8D7E" x="0" y="0" fill="oklch(39.8% 0.195 -82.634)" fill-rule="nonzero"/></g><a transform="translate(92.76 -3)"><rect width="6" height="18" fill="transparent" stroke="none"/></a><g transform="matrix(1 0 0 -1 0 30)"><use xlink:href="#g1BCD6CD2240A20D146CA5A27E65F068E" x="0" y="0" fill="#000000" fill-rule="nonzero"/><use xlink:href="#g90F67975F846EED221D2549B55B3D5D6" x="7.668" y="0" fill="#000000" fill-rule="nonzero"/><use xlink:href="#g93AF8C8216FD4BF7B51F57176E45FEF8" x="14.004" y="0" fill="#000000" fill-rule="nonzero"/><use xlink:href="#g356CD5BAD6FF1CDC4BE30D8539A232C0" x="17.34" y="0" fill="#000000" fill-rule="nonzero"/><use xlink:href="#gA549CC0003F96337A5E4FE9ECB9C7E0D" x="23.34" y="0" fill="#000000" fill-rule="nonzero"/><use xlink:href="#g93AF8C8216FD4BF7B51F57176E45FEF8" x="28.008" y="0" fill="#000000" fill-rule="nonzero"/><use xlink:href="#g745395C0F4BBBD22FBCD0EB6C8DD2449" x="31.344" y="0" fill="#000000" fill-rule="nonzero"/><use xlink:href="#g413F868FEE821159D2608B7C80AAF0A5" x="37.344" y="0" fill="#000000" fill-rule="nonzero"/><use xlink:href="#g9059D20A265CEB97231BB4D1246B0FFC" x="44.016" y="0" fill="#000000" fill-rule="nonzero"/></g><g transform="matrix(1 0 0 -1 51.348 30)"><use xlink:href="#g81F82FB1373D507E562B36052E95BE89" x="0" y="0" fill="#000000" fill-rule="nonzero"/><use xlink:href="#gF39E2181DC6CA8AF10C1B2FC0830D36" x="4.908" y="0" fill="#000000" fill-rule="nonzero"/><use xlink:href="#gF39E2181DC6CA8AF10C1B2FC0830D36" x="9.816" y="0" fill="#000000" fill-rule="nonzero"/></g><g transform="matrix(1 0 0 -1 66.684 30)"><use xlink:href="#g1BCD6CD2240A20D146CA5A27E65F068E" x="3.996" y="0" fill="#000000" fill-rule="nonzero"/><use xlink:href="#g590E34C4350A928971F5F4542AB11ED" x="12.66" y="0" fill="#000000" fill-rule="nonzero"/><use xlink:href="#gA21E4FD43EFDDC1EE5DCC7F60B4CDFF5" x="17.988" y="0" fill="#000000" fill-rule="nonzero"/><use xlink:href="#g745395C0F4BBBD22FBCD0EB6C8DD2449" x="22.692" y="0" fill="#000000" fill-rule="nonzero"/><use xlink:href="#g413F868FEE821159D2608B7C80AAF0A5" x="28.692" y="0" fill="#000000" fill-rule="nonzero"/><use xlink:href="#g356CD5BAD6FF1CDC4BE30D8539A232C0" x="35.364" y="0" fill="#000000" fill-rule="nonzero"/><use xlink:href="#g1B66C084C32E655684B81A6854298314" x="41.364" y="0" fill="#000000" fill-rule="nonzero"/><use xlink:href="#gA549CC0003F96337A5E4FE9ECB9C7E0D" x="48.036" y="0" fill="#000000" fill-rule="nonzero"/><use xlink:href="#g93AF8C8216FD4BF7B51F57176E45FEF8" x="52.704" y="0" fill="#000000" fill-rule="nonzero"/><use xlink:href="#g6D4E56BAB6F75D3900BC9B686CF82962" x="56.04" y="0" fill="#000000" fill-rule="nonzero"/><use xlink:href="#g3326D56A821F61AB0ABDC278B73E23DD" x="61.368" y="0" fill="#000000" fill-rule="nonzero"/></g><g transform="matrix(1 0 0 -1 0 58)"><use xlink:href="#g52F26D361863EA537BBD908E06E3901E" x="0" y="0" fill="#000000" fill-rule="nonzero"/><use xlink:href="#g745395C0F4BBBD22FBCD0EB6C8DD2449" x="9" y="0" fill="#000000" fill-rule="nonzero"/><use xlink:href="#g358159C21AA2AB9587F309290E777DC2" x="15" y="0" fill="#000000" fill-rule="nonzero"/><use xlink:href="#g93AF8C8216FD4BF7B51F57176E45FEF8" x="18.336" y="0" fill="#000000" fill-rule="nonzero"/><use xlink:href="#g1D3B3549CC82497FA7D79236D8FDAFFC" x="21.672" y="0" fill="#000000" fill-rule="nonzero"/><use xlink:href="#g356CD5BAD6FF1CDC4BE30D8539A232C0" x="28.344" y="0" fill="#000000" fill-rule="nonzero"/><use xlink:href="#gE605E42E51966F55549606ECFF6B2B2" x="34.008" y="0" fill="#000000" fill-rule="nonzero"/><use xlink:href="#g3326D56A821F61AB0ABDC278B73E23DD" x="40.344" y="0" fill="#000000" fill-rule="nonzero"/><use xlink:href="#g9059D20A265CEB97231BB4D1246B0FFC" x="45.072" y="0" fill="#000000" fill-rule="nonzero"/></g><g transform="matrix(1 0 0 -1 52.404 58)"><use xlink:href="#g5C49B726A32766B0AACD449BB2C994B6" x="0" y="0" fill="oklch(39.8% 0.195 -82.634)" fill-rule="nonzero"/></g><a transform="translate(52.404 43)"><rect width="6" height="18" fill="transparent" stroke="none"/></a><g transform="matrix(1 0 0 -1 58.404 58)"><use xlink:href="#g9059D20A265CEB97231BB4D1246B0FFC" x="0" y="0" fill="#000000" fill-rule="nonzero"/></g><g transform="matrix(1 0 0 -1 65.736 58)"><use xlink:href="#g7D94975EA46920EFF524E421E0FC8D7E" x="0" y="0" fill="oklch(39.8% 0.195 -82.634)" fill-rule="nonzero"/></g><a transform="translate(65.736 43)"><rect width="6" height="18" fill="transparent" stroke="none"/></a><g transform="matrix(1 0 0 -1 71.736 58)"><use xlink:href="#g9059D20A265CEB97231BB4D1246B0FFC" x="0" y="0" fill="#000000" fill-rule="nonzero"/></g><g transform="matrix(1 0 0 -1 79.068 58)"><use xlink:href="#g81F82FB1373D507E562B36052E95BE89" x="0" y="0" fill="#000000" fill-rule="nonzero"/><use xlink:href="#gF39E2181DC6CA8AF10C1B2FC0830D36" x="4.908" y="0" fill="#000000" fill-rule="nonzero"/><use xlink:href="#gF39E2181DC6CA8AF10C1B2FC0830D36" x="9.816" y="0" fill="#000000" fill-rule="nonzero"/><use xlink:href="#g6AC0E471571BB200CB9BB922ED14B3EE" x="19.632" y="0" fill="#000000" fill-rule="nonzero"/><use xlink:href="#g6F45ED774F17C298918C04FBFEA050A8" x="25.764" y="0" fill="#000000" fill-rule="nonzero"/><use xlink:href="#g81F82FB1373D507E562B36052E95BE89" x="28.836" y="0" fill="#000000" fill-rule="nonzero"/><use xlink:href="#g29446BBBA1C2C2395681E49F77CC7524" x="33.744" y="0" fill="#000000" fill-rule="nonzero"/></g><g transform="matrix(1 0 0 -1 118.944 58)"><use xlink:href="#gDB558DBCB03E047E8F78FE4B2E16618C" x="3.996" y="0" fill="#000000" fill-rule="nonzero"/><use xlink:href="#g590E34C4350A928971F5F4542AB11ED" x="11.496" y="0" fill="#000000" fill-rule="nonzero"/><use xlink:href="#g356CD5BAD6FF1CDC4BE30D8539A232C0" x="16.824" y="0" fill="#000000" fill-rule="nonzero"/><use xlink:href="#g90F67975F846EED221D2549B55B3D5D6" x="22.488" y="0" fill="#000000" fill-rule="nonzero"/><use xlink:href="#g590E34C4350A928971F5F4542AB11ED" x="28.488" y="0" fill="#000000" fill-rule="nonzero"/></g><g transform="matrix(1 0 0 -1 0 86)"><use xlink:href="#gDB558DBCB03E047E8F78FE4B2E16618C" x="0" y="0" fill="#000000" fill-rule="nonzero"/><use xlink:href="#g590E34C4350A928971F5F4542AB11ED" x="7.5" y="0" fill="#000000" fill-rule="nonzero"/><use xlink:href="#g356CD5BAD6FF1CDC4BE30D8539A232C0" x="12.828" y="0" fill="#000000" fill-rule="nonzero"/><use xlink:href="#g90F67975F846EED221D2549B55B3D5D6" x="18.492" y="0" fill="#000000" fill-rule="nonzero"/><use xlink:href="#g590E34C4350A928971F5F4542AB11ED" x="24.492" y="0" fill="#000000" fill-rule="nonzero"/><use xlink:href="#g9059D20A265CEB97231BB4D1246B0FFC" x="29.82" y="0" fill="#000000" fill-rule="nonzero"/></g><g transform="matrix(1 0 0 -1 37.152 86)"><use xlink:href="#g7D94975EA46920EFF524E421E0FC8D7E" x="0" y="0" fill="oklch(39.8% 0.195 -82.634)" fill-rule="nonzero"/></g><a transform="translate(37.152 71)"><rect width="6" height="18" fill="transparent" stroke="none"/></a><g transform="translate(0 102)"><g transform="matrix(1 0 0 -1 0 12)"><use xlink:href="#g69544669773E309D16398E3B5C7FC0E0" x="0" y="0" fill="#000000" fill-rule="nonzero"/><use xlink:href="#g6D4E56BAB6F75D3900BC9B686CF82962" x="6.672" y="0" fill="#000000" fill-rule="nonzero"/><use xlink:href="#g356CD5BAD6FF1CDC4BE30D8539A232C0" x="12" y="0" fill="#000000" fill-rule="nonzero"/><use xlink:href="#gDC0B223BCDAB6AB66A674DFACE701BBB" x="18" y="0" fill="#000000" fill-rule="nonzero"/><use xlink:href="#g93AF8C8216FD4BF7B51F57176E45FEF8" x="24.672" y="0" fill="#000000" fill-rule="nonzero"/><use xlink:href="#g590E34C4350A928971F5F4542AB11ED" x="28.008" y="0" fill="#000000" fill-rule="nonzero"/><use xlink:href="#g3326D56A821F61AB0ABDC278B73E23DD" x="33.336" y="0" fill="#000000" fill-rule="nonzero"/><use xlink:href="#g9059D20A265CEB97231BB4D1246B0FFC" x="38.064" y="0" fill="#000000" fill-rule="nonzero"/></g><g transform="matrix(1 0 0 -1 45.396 12)"><use xlink:href="#g682E8094D0766A61BC97B76899B222A5" x="0" y="0" fill="oklch(39.8% 0.195 -82.634)" fill-rule="nonzero"/></g><a transform="translate(45.396 -3)"><rect width="6" height="18" fill="transparent" stroke="none"/></a><g transform="matrix(1 0 0 -1 20 30)"><use xlink:href="#g1D3B3549CC82497FA7D79236D8FDAFFC" x="0" y="0" fill="#000000" fill-rule="nonzero"/><use xlink:href="#g93AF8C8216FD4BF7B51F57176E45FEF8" x="6.672" y="0" fill="#000000" fill-rule="nonzero"/><use xlink:href="#g356CD5BAD6FF1CDC4BE30D8539A232C0" x="10.008" y="0" fill="#000000" fill-rule="nonzero"/><use xlink:href="#gFDBB49AB5F7C87D7C0F6A7CEB5E29AA" x="16.008" y="0" fill="#000000" fill-rule="nonzero"/><use xlink:href="#g413F868FEE821159D2608B7C80AAF0A5" x="22.008" y="0" fill="#000000" fill-rule="nonzero"/><use xlink:href="#g745395C0F4BBBD22FBCD0EB6C8DD2449" x="28.68" y="0" fill="#000000" fill-rule="nonzero"/><use xlink:href="#g3326D56A821F61AB0ABDC278B73E23DD" x="34.68" y="0" fill="#000000" fill-rule="nonzero"/><use xlink:href="#g93AF8C8216FD4BF7B51F57176E45FEF8" x="39.408" y="0" fill="#000000" fill-rule="nonzero"/><use xlink:href="#g3326D56A821F61AB0ABDC278B73E23DD" x="42.744" y="0" fill="#000000" fill-rule="nonzero"/><use xlink:href="#g9059D20A265CEB97231BB4D1246B0FFC" x="47.472" y="0" fill="#000000" fill-rule="nonzero"/></g><g transform="matrix(1 0 0 -1 74.804 30)"><use xlink:href="#g682E8094D0766A61BC97B76899B222A5" x="0" y="0" fill="oklch(39.8% 0.195 -82.634)" fill-rule="nonzero"/></g><a transform="translate(74.804 15)"><rect width="6" height="18" fill="transparent" stroke="none"/></a><g transform="matrix(1 0 0 -1 20 48)"><use xlink:href="#gA549CC0003F96337A5E4FE9ECB9C7E0D" x="0" y="0" fill="#000000" fill-rule="nonzero"/><use xlink:href="#gA21E4FD43EFDDC1EE5DCC7F60B4CDFF5" x="4.668" y="0" fill="#000000" fill-rule="nonzero"/><use xlink:href="#g590E34C4350A928971F5F4542AB11ED" x="9.372" y="0" fill="#000000" fill-rule="nonzero"/><use xlink:href="#g356CD5BAD6FF1CDC4BE30D8539A232C0" x="14.7" y="0" fill="#000000" fill-rule="nonzero"/><use xlink:href="#gA549CC0003F96337A5E4FE9ECB9C7E0D" x="20.7" y="0" fill="#000000" fill-rule="nonzero"/><use xlink:href="#g5C0A7143165163F49995DCA616D92B1E" x="25.368" y="0" fill="#000000" fill-rule="nonzero"/><use xlink:href="#g590E34C4350A928971F5F4542AB11ED" x="35.364" y="0" fill="#000000" fill-rule="nonzero"/><use xlink:href="#g413F868FEE821159D2608B7C80AAF0A5" x="40.692" y="0" fill="#000000" fill-rule="nonzero"/><use xlink:href="#gA549CC0003F96337A5E4FE9ECB9C7E0D" x="47.028" y="0" fill="#000000" fill-rule="nonzero"/><use xlink:href="#g9059D20A265CEB97231BB4D1246B0FFC" x="51.696" y="0" fill="#000000" fill-rule="nonzero"/></g><g transform="matrix(1 0 0 -1 79.028 48)"><use xlink:href="#g682E8094D0766A61BC97B76899B222A5" x="0" y="0" fill="oklch(39.8% 0.195 -82.634)" fill-rule="nonzero"/></g><a transform="translate(79.028 33)"><rect width="6" height="18" fill="transparent" stroke="none"/></a><g transform="matrix(1 0 0 -1 85.028 48)"><use xlink:href="#gDD15D207966C17A077B531963412DBDD" x="0" y="0" fill="#000000" fill-rule="nonzero"/></g><g transform="matrix(1 0 0 -1 89.024 48)"><use xlink:href="#g7D94975EA46920EFF524E421E0FC8D7E" x="0" y="0" fill="oklch(39.8% 0.195 -82.634)" fill-rule="nonzero"/></g><a transform="translate(89.024 33)"><rect width="6" height="18" fill="transparent" stroke="none"/></a></g></g><defs><symbol id="g1E02D30119FD88A09826855BA16BD87F" overflow="visible"><path d="M 0 0m 1.09 5.79c 0.32 0.5 1 0.62 1.36 0.62c 0.34 0 0.93 -0.21 0.93 -1.08c 0 -0.72 -0.27 -1.44 -0.78 -1.63c -0.139306641 -0.051894531 -0.26 -0.06 -0.59 -0.09c -0.240874481 -0.021897583 -0.34 0.02 -0.34 -0.13c 0 -0.04 0.01 -0.08 0.05 -0.1c 0.02 -0.01 0.41 -0.01 0.64 -0.01c 0.81 0 1.18 -0.71 1.18 -1.67c 0 -1.43 -0.78 -1.64 -1.16 -1.64c -0.44 0 -1.18 0.21 -1.5 0.76c 0.04 -0.01 0.07 -0.01 0.1 -0.01c 0.31 0 0.56 0.22 0.56 0.56c 0 0.33 -0.23 0.56 -0.57 0.56c -0.35 0 -0.55 -0.23 -0.55 -0.59c 0 -0.87 0.91 -1.56 2.02 -1.56c 1.08 0 2.13 0.77 2.13 1.95c 0 0.76 -0.58 1.56 -1.67 1.79c 0.8 0.25 1.4 0.96 1.4 1.76c 0 0.82 -0.88 1.38 -1.84 1.38c -1.06 0 -1.77 -0.64 -1.77 -1.35c 0 -0.32 0.2 -0.53 0.5 -0.53c 0.34 0 0.52 0.23 0.52 0.52c 0 0.25 -0.12 0.49 -0.62 0.49Z "/></symbol><symbol id="g254AFE515A874C7A854056835DCCDC5E" overflow="visible"><path d="M 0 0m 4.340868336 0v 16.462090848h -2.111132688v -16.462090848Z "/></symbol><symbol id="gAEB94C302EF449E4E75AA9C9FC4FF80B" overflow="visible"><path d="M 0 0m 10.31845752 0v 7.068736416c 0 1.565559072 -0.35580888 3.724132944 -3.249721104 3.724132944c -2.13485328 0 -3.297162288 -1.613000256 -3.43948584 -1.802764992v 1.684162032h -1.707882624v -10.6742664h 1.850206176v 5.81154504c 0 1.565559072 0.5930148 3.534368208 2.395779792 3.534368208c 2.277176832 0 2.300897424 -1.684162032 2.300897424 -2.443220976v -6.902692272Z "/></symbol><symbol id="gD446BD286B24575A7FA0AF43645CA7F1" overflow="visible"><path d="M 0 0m 10.294736928 0v 16.462090848h -1.7790444v -6.973854048c -1.257191376 1.043706048 -2.585544528 1.30463256 -3.463206432 1.30463256c -2.348338608 0 -4.198544784 -2.466941568 -4.198544784 -5.526897936c 0 -3.107397552 1.826485584 -5.526897936 4.079941824 -5.526897936c 0.782779536 0 2.182294464 0.213485328 3.510647616 1.494397296v -1.233470784Z m -1.850206176 3.297162288c 0 -0.332088288 -0.023720592 -0.759058944 -0.782779536 -1.446956112c -0.545573616 -0.47441184 -1.138588416 -0.664176576 -1.755323808 -0.664176576c -1.470676704 0 -3.20227992 1.114867824 -3.20227992 4.056221232c 0 3.131118144 2.039970912 4.103662416 3.43948584 4.103662416c 1.06742664 0 1.7790444 -0.545573616 2.300897424 -1.30463256Z "/></symbol><symbol id="g952AB922520C46AD5FF3ECB951166C4" overflow="visible"><path d="M 0 0m 9.820325088 5.194809648c 0 0.806500128 -0.023720592 2.585544528 -0.94882368 4.008780048c -0.972544272 1.470676704 -2.419500384 1.731603216 -3.273441696 1.731603216c -2.632985712 0 -4.767838992 -2.514382752 -4.767838992 -5.57433912c 0 -3.131118144 2.277176832 -5.621780304 5.123647872 -5.621780304c 1.494397296 0 2.84647104 0.569294208 3.771574128 1.233470784l -0.142323552 1.54183848c -1.494397296 -1.233470784 -3.059956368 -1.328353152 -3.605529984 -1.328353152c -1.89764736 0 -3.415765248 1.684162032 -3.486927024 4.008780048Z m -1.352073744 1.30463256h -5.858986224c 0.379529472 1.802764992 1.636720848 2.988794592 2.988794592 2.988794592c 1.233470784 0 2.561823936 -0.806500128 2.870191632 -2.988794592Z "/></symbol><symbol id="gC4DE9373698777B9AD96B201F2E5E2DA" overflow="visible"><path d="M 0 0m 10.91147232 0l -4.7441184 5.432015568l 4.340868336 5.09992728h -1.945088544l -3.178559328 -3.91389768l -3.273441696 3.91389768h -1.968809136l 4.459471296 -5.09992728l -4.601794848 -5.432015568h 1.945088544l 3.43948584 4.459471296l 3.5580888 -4.459471296Z "/></symbol><symbol id="g1BCD6CD2240A20D146CA5A27E65F068E" overflow="visible"><path d="M 0 0m 8.616 0.372c -0.84 0 -1.058287354 0.02784082 -1.2 0.372l -2.676 7.716c -0.039925781 0.114972656 -0.18 0.132 -0.252 0.132c -0.06 0 -0.203636719 -0.02775 -0.24 -0.132l -2.592 -7.44c -0.216 -0.42 -0.588 -0.624 -1.176 -0.648h -0.096v -0.372c 0 0 0.6 0.036 1.104 0.036c 0.492 0 1.2 -0.024 1.5 -0.036v 0.372c -0.636 0 -0.9 0.324 -0.9 0.624c 0 0.112189453 0 0.112189453 0.576 1.74h 2.964c 0.220966553 -0.653596252 0.672130371 -1.895915588 0.672130371 -2.012538208c 0 -0.294906921 -0.50259668 -0.351461792 -0.888130737 -0.351461792h -0.108v -0.372c 0.408 0.024 1.092000366 0.036 1.692000366 0.036c 0.6 0 1.26 -0.036 1.62 -0.036Z m -3.12 2.736h -2.7c 0.456 1.296 0.9 2.604 1.344 3.9l 0.012 -0.024c 0 -0.06 0.072 -0.168 1.344 -3.876Z "/></symbol><symbol id="g590E34C4350A928971F5F4542AB11ED" overflow="visible"><path d="M 0 0m 4.656 1.38c -0.384 -1.104 -1.32 -1.212 -1.608 -1.212c -0.42 0 -0.708 0.156 -0.972 0.372c -0.504 0.42 -0.744 1.08 -0.744 2.052v 0.18h 3.432c 0.192 0 0.216 0.036 0.216 0.24c 0 1.38 -0.78 2.364 -2.148 2.364c -1.464 0 -2.496 -1.284 -2.496 -2.736c 0 -1.656 1.284 -2.772 2.664 -2.772c 1.416 0 1.98 1.308 1.98 1.56c 0 0.072 -0.036 0.144 -0.144 0.144c -0.084 0 -0.132 -0.048 -0.18 -0.192Z m -1.836 3.732c 1.212 0 1.368 -1.56 1.368 -2.04v -0.036h -2.844v 0.084c 0.096 1.584 0.996 1.992 1.476 1.992Z "/></symbol><symbol id="gA21E4FD43EFDDC1EE5DCC7F60B4CDFF5" overflow="visible"><path d="M 0 0m 1.272 0.888c 0 -0.492 -0.12 -0.516 -0.936 -0.516v -0.372c 0.312 0 0.852 0.036 1.38 0.036c 0.528 0 1.272 -0.036 1.512 -0.036v 0.372c -1.164 0 -1.164 0.06 -1.164 0.672v 0.852c 0 1.008 0 1.128 0.012 1.224c 0.18 1.752 1.104 1.92 1.38 1.92c 0.06 0 0.096 0 0.156 -0.012c -0.168 -0.096 -0.276 -0.24 -0.276 -0.48c 0 -0.324 0.252 -0.504 0.516 -0.504c 0.192 0 0.516 0.12 0.516 0.528c 0 0.408 -0.396 0.732 -0.888 0.732c -0.768 0 -1.248 -0.624 -1.476 -1.32v 1.32l -1.668 -0.132v -0.372h 0.156c 0.588 -0.036 0.72 -0.072 0.768 -0.468c 0.012 -0.06 0.012 -0.636 0.012 -1.86Z "/></symbol><symbol id="g745395C0F4BBBD22FBCD0EB6C8DD2449" overflow="visible"><path d="M 0 0m 3 0.168c -0.72 0 -1.272 0.492 -1.488 1.08c -0.132 0.372 -0.18 0.792 -0.18 1.56c 0 0.768 0.096 1.272 0.42 1.68c 0.254713623 0.32075061 0.708 0.624 1.212 0.624c 0.504 0 1.056 -0.276 1.272 -0.624c 0.324 -0.408 0.42 -0.912 0.42 -1.68c 0 -0.768 -0.048 -1.188 -0.18 -1.56c -0.216 -0.588 -0.756 -1.08 -1.476 -1.08Z m 2.652 2.4c 0 1.536 -1.2 2.808 -2.652 2.808c -1.5 0 -2.664 -1.308 -2.664 -2.808c 0 -1.548 1.248 -2.7 2.652 -2.7c 1.452 0 2.664 1.176 2.664 2.7Z "/></symbol><symbol id="g413F868FEE821159D2608B7C80AAF0A5" overflow="visible"><path d="M 0 0m 5.484 3.624c 0 1.212 -0.564 1.68 -1.668 1.68c -0.888 0 -1.452 -0.6 -1.74 -1.26v 1.26l -1.692 -0.132v -0.372h 0.156c 0.768 0 0.78 -0.207796875 0.78 -0.708v -3.204c 0 -0.504 -0.132 -0.516 -0.936 -0.516v -0.372c 0.276 0 1.056 0.036 1.344 0.036c 0.216 0 1.2 -0.036 1.356 -0.036v 0.372c -0.792 0 -0.936 0.030587036 -0.936 0.492v 2.232c 0 1.212 0.828 1.92 1.62 1.92c 0.552 0 0.888 -0.363966797 0.888 -1.236v -2.916c 0 -0.477667969 -0.144 -0.492 -0.936 -0.492v -0.372c 0.276 0.012 0.936 0.036 1.464 0.036c 0.216 0 1.08 -0.024 1.236 -0.036v 0.372h -0.216c -0.648 0 -0.72 0.132710999 -0.72 0.432Z "/></symbol><symbol id="g356CD5BAD6FF1CDC4BE30D8539A232C0" overflow="visible"><path d="M 0 0m 4.752 3.384c 0 0.492 -0.048 0.948 -0.396 1.296c -0.444 0.444 -0.924 0.696 -1.788 0.696c -0.696 0 -1.704 -0.468 -1.704 -1.344c 0 -0.372 0.216 -0.576 0.552 -0.576c 0.336 0 0.552 0.216 0.552 0.564c 0 0.288 -0.204 0.54 -0.612 0.54c 0.288 0.36 0.828 0.552 1.26 0.552c 0.648 0 1.308 -0.516 1.308 -1.488v -0.492c -2.664 -0.072 -3.408 -1.176 -3.408 -1.98c 0 -1.008 1.152 -1.284 1.896 -1.284c 0.672 0 1.332 0.348 1.596 1.044c 0.012 -0.228 0.204 -0.984 0.948 -0.984c 0.36 0 0.972 0.264 0.972 1.128v 0.684h -0.3v -0.684c 0 -0.624 -0.276 -0.756 -0.42 -0.756c -0.24 0 -0.456 0.156 -0.456 0.828Z m -0.828 -1.704c 0 -1.056 -0.78 -1.548 -1.416 -1.548c -0.66 0 -1.068 0.505300781 -1.068 1.032c 0 0.576 0.432 1.632 2.484 1.716Z "/></symbol><symbol id="g1B66C084C32E655684B81A6854298314" overflow="visible"><path d="M 0 0m 6.42 0l -1.728 -0.132v 1.08c -0.252 -0.576 -0.732 -1.08 -1.548 -1.08c -1.596 0 -1.824 0.860964844 -1.824 1.692v 2.412c 0 0.708 -0.072 0.828 -0.78 0.828h -0.156v 0.372l 1.764 0.132v -4.032c 0 -0.6 0.108 -1.116 1.032 -1.116c 0.809320313 0 1.476 0.693550781 1.476 1.86v 2.232c 0 0.456 -0.228 0.552 -0.78 0.552h -0.156v 0.372l 1.764 0.132v -4.296c 0 -0.492 0.096 -0.636 0.816 -0.636h 0.12Z "/></symbol><symbol id="gA549CC0003F96337A5E4FE9ECB9C7E0D" overflow="visible"><path d="M 0 0m 3.684 1.464v 0.708h 0.3v -0.708c 0 -0.888 -0.375058594 -1.596 -1.347234009 -1.596c -1.088765991 0 -1.388765991 0.888 -1.388765991 1.668v 3.264h -1.02v 0.264c 1.056 0.036 1.536 1.14 1.548 2.316h 0.3v -2.196h 1.716v -0.384h -1.716v -3.396c 0 -0.624 0.216 -1.236 0.7779245 -1.236c 0.594059875 0 0.8300755 0.684 0.8300755 1.296Z "/></symbol><symbol id="g93AF8C8216FD4BF7B51F57176E45FEF8" overflow="visible"><path d="M 0 0m 0.396 0v 0.372c 0.732 0 0.936 0.003386719 0.936 0.444v 3.372c 0 0.534339844 -0.132 0.612 -0.888 0.612v 0.372l 1.68 0.132v -4.488c 0 -0.432186401 0.18 -0.444 0.84 -0.444v -0.372c -0.276 0 -0.792 0.036 -1.26 0.036c -0.42 0 -1.02 -0.036 -1.308 -0.036Z m 1.152 6.756c 0.372 0 0.624 0.264 0.624 0.636c 0 0.408 -0.324 0.624 -0.636 0.624c -0.312 0 -0.624 -0.204 -0.624 -0.624c 0 -0.3 0.18 -0.636 0.636 -0.636Z "/></symbol><symbol id="g6D4E56BAB6F75D3900BC9B686CF82962" overflow="visible"><path d="M 0 0m 3.024 -0.132c 1.512 0 1.956 1.368 1.956 1.572c 0 0.072 -0.06 0.108 -0.168 0.108c -0.096 0 -0.12 -0.024 -0.144 -0.108c -0.228 -0.72 -0.696 -1.272 -1.572 -1.272c -0.708 0 -1.692 0.624 -1.692 2.448c 0 0.972 0.216 1.548 0.648 2.04c 0.264 0.264 0.54 0.408 0.948 0.408c 0.54 0 1.044 -0.168 1.308 -0.432c -0.468 -0.024 -0.564 -0.36 -0.564 -0.54c 0 -0.324 0.204 -0.564 0.564 -0.564c 0.312 0 0.54 0.216 0.54 0.576c 0 0.804 -0.948 1.272 -1.836 1.272c -1.548 0 -2.616 -1.368 -2.616 -2.784c 0 -1.308 0.996 -2.724 2.628 -2.724Z "/></symbol><symbol id="g3326D56A821F61AB0ABDC278B73E23DD" overflow="visible"><path d="M 0 0m 4.02 5.184v -1.38c 0 -0.168 -0.024 -0.216 -0.144 -0.216c -0.144 0 -0.168 0.072 -0.168 0.204c 0 0.18 -0.06 1.356 -1.368 1.356c -0.984 0 -1.368 -0.432 -1.368 -0.9c 0 -0.492 0.408 -0.72 0.768 -0.828c 0.563670776 -0.169101196 0.852 -0.156 1.392 -0.336c 0.7635 -0.254496094 1.188 -0.864 1.188 -1.536c 0 -0.804 -0.456 -1.68 -1.944 -1.68c -0.576 0 -0.984 0.192 -1.308 0.516c -0.374423767 -0.432027283 -0.448697571 -0.517727966 -0.567220825 -0.517727966c -0.067296387 0 -0.104779175 0.040903015 -0.104779175 0.253727966v 1.668c 0 0.215989929 0.036 0.252 0.156 0.252c 0.096 0 0.126895752 -0.025030701 0.156 -0.156c 0.096 -0.432 0.23222113 -0.813639954 0.393046875 -1.068c 0.386953125 -0.612 0.945007324 -0.684 1.286953125 -0.684c 0.804 0 1.356 0.372 1.356 1.092c 0 0.552 -0.396 0.852 -0.912 1.02c -0.324747253 0.105731689 -1.176 0.18 -1.68 0.468c -0.396 0.228 -0.756 0.624 -0.756 1.176c 0 0.636 0.396 1.488 1.932 1.488c 0.516 0 0.84 -0.144 1.116 -0.336c 0.312 0.3 0.356636719 0.336 0.444 0.336c 0.072 0 0.132 -0.012 0.132 -0.192Z "/></symbol><symbol id="g9059D20A265CEB97231BB4D1246B0FFC" overflow="visible"><path d="M 0 0m 1.344 -2.316c 0.144 0 1.092 0.944565125 1.092 2.304c 0 0.504 -0.12 1.284 -0.768 1.284c -0.444 0 -0.636 -0.348 -0.636 -0.636c 0 -0.264 0.156 -0.636 0.624 -0.636c 0.216 0 0.384 0.084 0.492 0.192v -0.072c 0 -0.948 -0.348 -1.656 -0.876 -2.208c -0.023460938 -0.024527344 -0.048 -0.072 -0.048 -0.096c 0 -0.048 0.024 -0.132 0.12 -0.132Z "/></symbol><symbol id="g5C49B726A32766B0AACD449BB2C994B6" overflow="visible"><path d="M 0 0m 5.028 0v 0.372c -1.4341875 0.006105469 -1.5 0.058886719 -1.5 0.588v 6.828c 0 0.144 -0.036 0.204 -0.168 0.204h -0.108c -0.36 -0.324 -0.876 -0.768 -2.184 -0.768v -0.372c 0.972 0 1.450212524 0.232659668 1.572 0.324v -6.216c 0 -0.505148437 -0.029917969 -0.581894531 -1.5 -0.588v -0.372c 0.264 0 1.452 0.036 1.764 0.036c 0.744 0 1.692 -0.036 2.124 -0.036Z "/></symbol><symbol id="g682E8094D0766A61BC97B76899B222A5" overflow="visible"><path d="M 0 0m 5.052 0c 0.036 0.228 0.336 2.088 0.336 2.088h -0.3c 0 0 -0.156 -0.996 -0.276 -1.08c -0.049153931 -0.034407715 -0.252 -0.084 -1.152 -0.084h -2.136l 0.732 0.708c 1.963451294 1.899075806 3.132 2.532117188 3.132 4.032c 0 1.416 -1.127890869 2.328 -2.544 2.328c -1.356 0 -2.244 -1.068 -2.244 -2.184c 0 -0.516 0.36 -0.66 0.636 -0.66c 0.312 0 0.624 0.228 0.624 0.636c 0 0.372 -0.288 0.624 -0.612 0.624c -0.06 0 -0.12 0 -0.18 -0.012c 0.408 1.092 1.26 1.224 1.644 1.224c 1.38 0 1.584 -1.519197144 1.584 -1.956c 0 -1.047348633 -0.693875977 -2.021850586 -1.500000183 -2.915999817l -2.1 -2.34c -0.090546204 -0.100894409 -0.096 -0.144 -0.096 -0.408Z "/></symbol><symbol id="gDD15D207966C17A077B531963412DBDD" overflow="visible"><path d="M 0 0m 0.132 2.232h 3.192v 0.708h -3.192Z "/></symbol><symbol id="g7D94975EA46920EFF524E421E0FC8D7E" overflow="visible"><path d="M 0 0m 1.308 6.948c 0.384 0.6 1.2 0.744 1.632 0.744c 0.408 0 1.116 -0.252 1.116 -1.296c 0 -0.864 -0.324 -1.728 -0.936 -1.956c -0.167167969 -0.062273438 -0.312 -0.072 -0.708 -0.108c -0.289049377 -0.0262771 -0.408 0.024 -0.408 -0.156c 0 -0.048 0.012 -0.096 0.06 -0.12c 0.024 -0.012 0.492 -0.012 0.768 -0.012c 0.972 0 1.416 -0.852 1.416 -2.004c 0 -1.716 -0.936 -1.968 -1.392 -1.968c -0.528 0 -1.416 0.252 -1.8 0.912c 0.048 -0.012 0.084 -0.012 0.12 -0.012c 0.372 0 0.672 0.264 0.672 0.672c 0 0.396 -0.276 0.672 -0.684 0.672c -0.42 0 -0.66 -0.276 -0.66 -0.708c 0 -1.044 1.092 -1.872 2.424 -1.872c 1.296 0 2.556 0.924 2.556 2.34c 0 0.912 -0.696 1.872 -2.004 2.148c 0.96 0.3 1.68 1.152 1.68 2.112c 0 0.984 -1.056 1.656 -2.208 1.656c -1.272 0 -2.124 -0.768 -2.124 -1.62c 0 -0.384 0.24 -0.636 0.6 -0.636c 0.408 0 0.624 0.276 0.624 0.624c 0 0.3 -0.144 0.588 -0.744 0.588Z "/></symbol><symbol id="g90F67975F846EED221D2549B55B3D5D6" overflow="visible"><path d="M 0 0m 2.052 4.368c -0.119484375 0.296648438 0.108 0.432 0.648 0.432v 0.372c -0.312 0 -1.056 -0.036 -1.38 -0.036c -0.216 0 -0.792 0.012 -1.092 0.036v -0.372h 0.072c 0.54 0 0.72316571 -0.048943359 0.84 -0.336l 1.8 -4.428c 0.03440918 -0.084646729 0.072 -0.168 0.216 -0.168c 0.108 0 0.18585498 0.033640503 0.24 0.168l 1.62 4.02c 0.116610352 0.289365967 0.372 0.744 1.08 0.744v 0.372c -0.228 -0.024 -0.54 -0.036 -0.9 -0.036c -0.18 0 -0.936 0.036 -1.044 0.036v -0.372c 0.468 0 0.671759033 -0.383904053 0.528 -0.744l -1.248 -3.12Z "/></symbol><symbol id="g81F82FB1373D507E562B36052E95BE89" overflow="visible"><path d="M 0 0m 4.716 1.884c 0 1.044 -0.936 1.26 -1.428 1.368c -0.336 0.072 -0.768 0.168 -0.768 0.684c 0 0.288 0.252 1.104 1.212 1.104c 0.324 0 0.768 -0.12 0.9 -0.588c -0.384 -0.048 -0.48 -0.372 -0.48 -0.492c 0 -0.132 0.072 -0.336 0.36 -0.336c 0.204 0 0.516 0.144 0.516 0.66c 0 0.552 -0.492 1.02 -1.284 1.02c -1.404 0 -1.896 -1.152 -1.896 -1.776c 0 -0.924 0.78 -1.092 1.116 -1.164c 0.528 -0.12 1.068 -0.24 1.068 -0.888c 0 -0.384 -0.324 -1.344 -1.56 -1.344c -0.264 0 -0.96 0.06 -1.152 0.672c 0.612 0.06 0.612 0.588 0.612 0.588c 0 0.228 -0.156 0.384 -0.408 0.384c -0.276 0 -0.612 -0.204 -0.612 -0.744c 0 -0.732 0.696 -1.164 1.548 -1.164c 1.8 0 2.256 1.464 2.256 2.016Z "/></symbol><symbol id="gF39E2181DC6CA8AF10C1B2FC0830D36" overflow="visible"><path d="M 0 0m 5.616 1.248c 0 0.06 -0.096 0.192 -0.192 0.192c -0.048 0 -0.06 -0.012 -0.156 -0.132c -0.888 -1.128 -1.956 -1.176 -2.16 -1.176c -0.78 0 -0.912 0.852 -0.912 1.32c 0 0.456 0.12 0.996 0.204 1.32h 0.468c 0.36 0 1.164 0.036 1.74 0.264c 0.948 0.384 0.948 1.164 0.948 1.248c 0 0.552 -0.444 1.02 -1.212 1.02c -1.26 0 -2.976 -1.212 -2.976 -3.336c 0 -1.08 0.576 -2.1 1.716 -2.1c 1.536 0 2.532 1.2 2.532 1.38Z m -0.516 3.06c 0 -1.272 -1.98 -1.272 -2.376 -1.272h -0.252c 0.516 1.968 1.752 2.004 1.872 2.004c 0.48 0 0.756 -0.324 0.756 -0.732Z "/></symbol><symbol id="g52F26D361863EA537BBD908E06E3901E" overflow="visible"><path d="M 0 0m 3.708 0.372c -0.972 0 -1.008 0.132 -1.008 0.564v 3.144h 3.588v -3.144c 0 -0.432 -0.036 -0.564 -0.984 -0.564h -0.252v -0.372c 0.408 0.024 1.092 0.036 1.764 0.036c 0.672 0 1.368 -0.012 1.776 -0.036v 0.372h -0.228c -0.972 0 -1.008 0.132 -1.008 0.564v 3.336v 3.048c 0 0.348 0.036 0.504 1.008 0.504h 0.228v 0.372c -0.264 -0.024 -1.428 -0.036 -1.788 -0.036c -0.66 0 -1.392 0.012 -1.752 0.036v -0.372h 0.228c 0.972 0 1.008 -0.144 1.008 -0.552v -2.82h -3.588v 2.868c 0 0.348 0.036 0.504 1.008 0.504h 0.228v 0.372c -0.264 -0.024 -1.428 -0.036 -1.788 -0.036c -0.66 0 -1.392 0.012 -1.752 0.036v -0.372h 0.228c 0.972 0 1.008 -0.144 1.008 -0.552v -3.168v -3.168c 0 -0.432 -0.036 -0.564 -0.984 -0.564h -0.252v -0.372c 0.408 0.024 1.092 0.036 1.764 0.036c 0.672 0 1.368 -0.012 1.776 -0.036v 0.372Z "/></symbol><symbol id="g358159C21AA2AB9587F309290E777DC2" overflow="visible"><path d="M 0 0m 2.124 0.924c 0 -0.528 0.084 -0.552 0.936 -0.552v -0.372c -0.3 0 -0.864 0.036 -1.344 0.036c -0.48 0 -1.02 -0.036 -1.32 -0.036v 0.372c 0.804 0 0.936 0.036 0.936 0.48v 6.384c 0 0.564 -0.264 0.588 -0.936 0.588v 0.372l 1.728 0.132Z "/></symbol><symbol id="g1D3B3549CC82497FA7D79236D8FDAFFC" overflow="visible"><path d="M 0 0m 2.94 -0.132c 1.104 0 1.608 0.78 1.62 0.792v -0.792h 0.048c 0 0 1.668 0.132 1.68 0.132h 0.036v 0.372h -0.132c -0.684 0 -0.804 0.132 -0.804 0.612v 7.344h -0.012c -0.084 0 -1.716 -0.132 -1.716 -0.132v -0.372h 0.144c 0.612 0 0.792 -0.12 0.792 -0.564v -2.688c -0.396 0.48 -0.936 0.732 -1.512 0.732c -1.536 0 -2.676 -1.296 -2.676 -2.712c 0 -1.507793335 1.154109192 -2.724 2.532 -2.724Z m 0.084 0.264c -0.444 0 -0.756 0.18 -1.044 0.468c -0.396 0.468 -0.576 0.924 -0.576 1.968c 0 0.312 0.012 0.984 0.264 1.512c 0.264 0.552 0.864 0.96 1.464 0.96c 0.624 0 1.116 -0.36 1.416 -0.948v -2.88c -0.084 -0.264 -0.612 -1.08 -1.524 -1.08Z "/></symbol><symbol id="gE605E42E51966F55549606ECFF6B2B2" overflow="visible"><path d="M 0 0m 4.668 4.056l -1.236 -3.012l -1.38 3.348c -0.012 0.024 -0.024 0.06 -0.024 0.108c 0 0.168 0.156 0.3 0.672 0.3v 0.372c -0.312 0 -1.176 -0.036 -1.272 -0.036c -0.456 0 -0.936 0.024 -1.2 0.036v -0.372c 0.576 0 0.804 0 0.972 -0.42l 1.8 -4.38l -0.228 -0.54c -0.36 -0.84 -0.684 -1.656 -1.452 -1.656c -0.228 0 -0.444 0.108 -0.552 0.216c 0.288 0.036 0.468 0.228 0.468 0.492c 0 0.384 -0.288 0.516 -0.504 0.516c -0.192 0 -0.504 -0.12 -0.504 -0.516c 0 -0.504 0.444 -0.972 1.104 -0.972c 0.756 0 1.248 0.672 1.536 1.368l 2.1 5.088c 0.216 0.516 0.684 0.804 1.128 0.804v 0.372c -0.096 -0.012 -0.648 -0.036 -0.804 -0.036c -0.384 0 -0.912 0.036 -1.14 0.036v -0.372c 0.456 0 0.672 -0.372 0.516 -0.744Z "/></symbol><symbol id="g6AC0E471571BB200CB9BB922ED14B3EE" overflow="visible"><path d="M 0 0m 6.3 1.716c 0 0.12 -0.096 0.12 -0.18 0.12c -0.144 0 -0.156 -0.012 -0.228 -0.276c -0.168 -0.672 -0.396 -1.428 -0.804 -1.428c -0.312 0 -0.312 0.324 -0.312 0.492c 0 0.084 0 0.276 0.084 0.612l 0.816 3.264c 0.048 0.168 0.048 0.192 0.048 0.252c 0 0.252 -0.204 0.312 -0.324 0.312c -0.384 0 -0.468 -0.408 -0.48 -0.468c -0.228 0.516 -0.612 0.708 -0.996 0.708c -1.332 0 -2.748 -1.824 -2.748 -3.576c 0 -1.02 0.552 -1.86 1.452 -1.86c 0.432 0 0.96 0.252 1.44 0.84c 0.132 -0.588 0.576 -0.84 0.996 -0.84c 0.444 0 0.696 0.3 0.876 0.672c 0.216 0.456 0.36 1.176 0.36 1.176Z m -2.148 -0.228c -0.096 -0.384 -0.84 -1.356 -1.5 -1.356c -0.564 0 -0.66 0.708 -0.66 1.068c 0 0.6 0.372 2.004 0.588 2.508c 0.3 0.732 0.852 1.332 1.344 1.332c 0.528 0 0.828 -0.624 0.828 -1.128c 0 0 -0.012 -0.084 -0.036 -0.156Z "/></symbol><symbol id="g6F45ED774F17C298918C04FBFEA050A8" overflow="visible"><path d="M 0 0m 3.36 1.716c 0 0.12 -0.096 0.12 -0.18 0.12c -0.06 0 -0.132 0 -0.168 -0.06l -0.084 -0.3c -0.204 -0.84 -0.432 -1.344 -0.768 -1.344c -0.312 0 -0.312 0.324 -0.312 0.492c 0 0.084 0 0.264 0.072 0.552l 1.716 6.852c 0.012 0.036 0.036 0.156 0.036 0.156c 0 0.108 -0.072 0.144 -0.168 0.144c -0.036 0 -0.156 -0.012 -0.192 -0.024l -1.188 -0.096c -0.144 -0.012 -0.276 -0.024 -0.276 -0.252c 0 -0.132 0.12 -0.132 0.288 -0.132c 0.576 0 0.6 -0.084 0.6 -0.204c 0 -0.036 -0.036 -0.204 -0.036 -0.204l -1.5 -6c -0.012 -0.048 -0.072 -0.288 -0.072 -0.468c 0 -0.636 0.432 -1.08 1.008 -1.08c 0.456 0 0.696 0.324 0.852 0.624c 0.204 0.42 0.372 1.188 0.372 1.224Z "/></symbol><symbol id="g29446BBBA1C2C2395681E49F77CC7524" overflow="visible"><path d="M 0 0m 6.108 3.336c 0 1.14 -0.708 1.968 -1.752 1.968c -1.488 0 -3.036 -1.704 -3.036 -3.456c 0 -1.236 0.756 -1.98 1.752 -1.98c 1.488 0 3.036 1.704 3.036 3.468Z m -0.84 0.468c 0 -0.516 -0.264 -1.752 -0.648 -2.472c -0.348 -0.66 -0.96 -1.2 -1.548 -1.2c -0.468 0 -0.912 0.372 -0.912 1.236c 0 0.6 0.312 1.932 0.696 2.58c 0.444 0.732 1.02 1.092 1.488 1.092c 0.588 0 0.924 -0.528 0.924 -1.236Z "/></symbol><symbol id="gDB558DBCB03E047E8F78FE4B2E16618C" overflow="visible"><path d="M 0 0m 6.984 3.096h -0.3c -0.192 -2.004 -0.828 -2.724 -2.52 -2.724h -0.96c -0.396 0 -0.504 0.036 -0.504 0.54v 6.336c 0 0.468 0.096 0.576 1.188 0.576h 0.348v 0.372c -0.468 -0.024 -1.284 -0.036 -1.98 -0.036c -0.696 0 -1.452 0.012 -1.86 0.036v -0.372h 0.408c 0.72 0 0.828 -0.168 0.828 -0.42v -6.492c 0 -0.42 -0.06 -0.54 -0.948 -0.54h -0.288v -0.372h 6.252Z "/></symbol><symbol id="g69544669773E309D16398E3B5C7FC0E0" overflow="visible"><path d="M 0 0m 0.672 2.496v -1.272c 0 -1.344 0 -1.392 0.012 -1.416c 0.024 -0.048 0.048 -0.072 0.12 -0.072c 0.048 0 0.072 0.012 0.096 0.036c 0.012 0.012 0.12 0.18 0.264 0.396l 0.252 0.408c 0.516 -0.516 1.236 -0.84 2.208 -0.84c 1.360771362 0 2.364 1.146563416 2.364 2.496c 0 1.176 -0.768 2.148 -1.692 2.4c -0.041742188 0.011378906 -1.692 0.408 -1.764 0.432c -0.580147522 0.193382446 -1.092 0.756 -1.092 1.5c 0 0.912 0.78 1.56 1.596 1.56c 1.448310059 0 2.16 -1.08 2.328 -2.508c 0.012696533 -0.107920166 0.036 -0.144 0.144 -0.144c 0.084 0 0.132 0.024 0.156 0.072v 2.736c 0 0.168 -0.084 0.192 -0.144 0.192c -0.048 0 -0.075632813 -0.020847656 -0.096 -0.048c -0.036 -0.048 -0.468 -0.768 -0.492 -0.792h -0.012c -0.408 0.384 -0.828 0.828 -1.968 0.828c -1.359316406 0 -2.28 -1.188 -2.28 -2.268c 0 -1.398924316 0.933038086 -2.048875488 1.584 -2.256c 0.216 -0.084 1.752 -0.42 1.932 -0.504c 0.532245483 -0.199592285 1.02 -0.791032654 1.02 -1.608000183c 0 -0.757369629 -0.487935791 -1.704 -1.596 -1.704c -1.464 0 -2.532 0.804 -2.628 2.244l -0.012 0.216c -0.006646179 0.119630859 -0.06 0.144 -0.156 0.144c -0.132 0 -0.144 -0.084 -0.144 -0.228Z "/></symbol><symbol id="gDC0B223BCDAB6AB66A674DFACE701BBB" overflow="visible"><path d="M 0 0m 2.064 4.524v 3.804h -0.012c -0.084 0 -1.632 -0.132 -1.716 -0.132v -0.372h 0.156c 0.552 -0.024 0.708 -0.096 0.756 -0.384c 0.012 -0.048 0.012 -0.24 0.024 -3.72l -0.012 -3.72h 0.312l 0.432 0.744c 0.528 -0.768 1.145389893 -0.876 1.584 -0.876c 1.368 0 2.664 1.14 2.664 2.7c 0 1.56 -1.188 2.736 -2.532 2.736c -0.451089844 0 -1.08 -0.108 -1.656 -0.78Z m 1.488 -4.392c -0.290250366 0 -0.804 0.072 -1.26 0.702421875c -0.092636719 0.128074219 -0.192 0.257578125 -0.192 0.461578125v 2.688c 0 0.210127441 0.590645691 1.056 1.548 1.056c 0.575154053 0 1.608 -0.48 1.608 -2.34c 0 -0.528 -0.024 -1.428 -0.516 -1.98c -0.276 -0.312 -0.66 -0.588 -1.188 -0.588Z "/></symbol><symbol id="gFDBB49AB5F7C87D7C0F6A7CEB5E29AA" overflow="visible"><path d="M 0 0m 5.196 5.436c -0.432 0 -0.948 -0.228 -1.26 -0.564c -0.312 0.24 -0.72 0.432 -1.284 0.432c -1.176 0 -1.932 -0.876 -1.932 -1.764c 0 -0.516 0.252 -0.9 0.54 -1.236c -0.204 -0.3 -0.348 -0.624 -0.348 -0.996c 0 -0.648 0.42 -1.02 0.528 -1.056c -0.927071594 -0.309023804 -1.104 -0.839791809 -1.104 -1.2c 0 -0.792 1.044 -1.524 2.664 -1.524c 1.599574219 0 2.652 0.715437561 2.652 1.548c 0 0.468 -0.168 0.84 -0.444 1.116c -0.612 0.588 -1.596 0.6 -2.532 0.6h -0.72c -0.372 0 -0.684 0.372 -0.684 0.816c 0 0.204 0.084 0.408 0.204 0.54c 0.312 -0.192 0.66 -0.36 1.176 -0.36c 1.104 0 1.956 0.792 1.956 1.752c 0 0.42 -0.168 0.852 -0.492 1.164c 0.181446533 0.181446533 0.613044434 0.468 1.068 0.468c 0.06 0 0.132 -0.012 0.132 -0.012c -0.108 -0.036 -0.192 -0.144 -0.192 -0.336c 0 -0.192 0.168 -0.336 0.336 -0.336c 0.24 0 0.36 0.168 0.36 0.36c 0 0.225103271 -0.162003296 0.588 -0.624 0.588Z m -1.488 -1.896c 0 -0.612 -0.096 -0.924 -0.336 -1.176c -0.18 -0.156 -0.384 -0.3 -0.72 -0.3c -0.893401428 0 -1.032 0.910799377 -1.032 1.476c 0 0.612 0.084 0.924 0.324 1.176c 0.168 0.168 0.396 0.312 0.744 0.312c 0.892615723 0 1.02 -0.947257324 1.02 -1.488Z m 1.32 -4.488c 0 -0.576 -0.732 -1.236 -2.04 -1.236c -1.08 0 -2.028 0.504 -2.028 1.224c 0 0.576 0.42 0.936 0.924 1.032h 1.392c 0.564 0 1.752 -0.096 1.752 -1.02Z "/></symbol><symbol id="g5C0A7143165163F49995DCA616D92B1E" overflow="visible"><path d="M 0 0m 4.656 3.684v -2.796c 0 -0.45579657 -0.132 -0.516 -0.744 -0.516h -0.192v -0.372c 0.156 0 1.08 0.036 1.344 0.036c 0.348 0 1.068 -0.036 1.356 -0.036v 0.372h -0.204c -0.6 0 -0.732 0.06 -0.732 0.504v 2.256c 0 1.164 0.792 1.908 1.62 1.908c 0.576 0 0.888 -0.396 0.888 -1.284v -2.856c 0 -0.48 -0.132 -0.528 -0.744 -0.528h -0.192v -0.372c 0.156 0 0.996 0.036 1.212 0.036c 0.528 0 1.212 -0.036 1.488 -0.036v 0.372c -0.612 0 -0.936 0 -0.936 0.372v 2.904c 0 1.236 -0.636 1.656 -1.62 1.656c -0.84 0 -1.404 -0.468 -1.752 -1.164c -0.12 0.78 -0.696 1.164 -1.572 1.164c -0.9 0 -1.452 -0.504 -1.8 -1.248v 1.248l -1.692 -0.132v -0.372c 0.864 0 0.936 -0.108 0.936 -0.648v -3.324c 0 -0.42 -0.192 -0.456 -0.744 -0.456h -0.192v -0.372c 0.288 0 0.996 0.036 1.224 0.036c 0.516 0 1.188 -0.036 1.476 -0.036v 0.372c -0.792 0 -0.936 0 -0.936 0.54v 2.232c 0 1.14 0.78 1.896 1.62 1.896c 0.6 0 0.888 -0.384 0.888 -1.356Z "/></symbol></defs></svg>