<svg viewBox="0 0 595.275590551 841.88976378" width="595.275590551pt" height="841.88976378pt" xmlns="http://www.w3.org/2000/svg" xmlns:xlink="http://www.w3.org/1999/xlink" xmlns:h5="http://www.w3.org/1999/xhtml"><path fill="#ffffff" fill-rule="nonzero" d="M 0 0v 841.88976378h 595.275590551v -841.88976378Z "/><g transform="matrix(1 0 0 -1 283.607239734 333.875338583)"><use xlink:href="#g5A40042379BBDE174011D22AC688F695" x="0" y="0" fill="#000000" fill-rule="nonzero"/><use xlink:href="#g8CAF85DC339D108EB2BE31505D9538D9" x="14.493281712" y="0" fill="#000000" fill-rule="nonzero"/><use xlink:href="#gD6A42502908EE0C2E49BD935B0C1CA0F" x="25.238709888" y="0" fill="#000000" fill-rule="nonzero"/><use xlink:href="#gF3D4CD3B7DF3CF5FBDB72701DB441284" x="33.351152352" y="0" fill="#000000" fill-rule="nonzero"/><use xlink:href="#g254AFE515A874C7A854056835DCCDC5E" x="49.8132432" y="0" fill="#000000" fill-rule="nonzero"/></g><g transform="matrix(1 0 0 -1 251.643742014 390.875338583)"><use xlink:href="#g36CF6D896AAC8D436349C01D3AE329C" x="0" y="0" fill="#000000" fill-rule="nonzero"/><use xlink:href="#gD9EE42C8D1730BF92864D230206FC2A5" x="12.832840272" y="0" fill="#000000" fill-rule="nonzero"/><use xlink:href="#g501FAC3BBB6A7E82DE39361449ED4B42" x="24.693136272" y="0" fill="#000000" fill-rule="nonzero"/><use xlink:href="#gAEB94C302EF449E4E75AA9C9FC4FF80B" x="36.956682336" y="0" fill="#000000" fill-rule="nonzero"/><use xlink:href="#gD446BD286B24575A7FA0AF43645CA7F1" x="49.2202284" y="0" fill="#000000" fill-rule="nonzero"/><use xlink:href="#g8CAF85DC339D108EB2BE31505D9538D9" x="61.483774464" y="0" fill="#000000" fill-rule="nonzero"/><use xlink:href="#gF3D4CD3B7DF3CF5FBDB72701DB441284" x="72.893379216" y="0" fill="#000000" fill-rule="nonzero"/><use xlink:href="#gFE15A70EE43F0B106031E2D0A195E85D" x="81.456512928" y="0" fill="#000000" fill-rule="nonzero"/><use xlink:href="#gD9EE42C8D1730BF92864D230206FC2A5" x="87.125734416" y="0" fill="#000000" fill-rule="nonzero"/><use xlink:href="#gAEB94C302EF449E4E75AA9C9FC4FF80B" x="98.986030416" y="0" fill="#000000" fill-rule="nonzero"/><use xlink:href="#gE83AB1AD35236C4C6F55EB769E111BAA" x="111.24957648" y="0" fill="#000000" fill-rule="nonzero"/></g><defs><symbol id="g5A40042379BBDE174011D22AC688F695" overflow="visible"><path d="M 0 0m 13.805384544 11.670531264c 0 2.538103344 -2.348338608 4.791559584 -5.621780304 4.791559584h -5.906427408v -16.462090848h 2.111132688v 6.855251088h 3.961338864c 2.941353408 0 5.45573616 2.158573872 5.45573616 4.815280176Z m -1.921367952 0c 0 -1.873926768 -1.494397296 -3.43948584 -4.222265376 -3.43948584h -3.344603472v 6.902692272h 3.344603472c 2.60926512 0 4.222265376 -1.446956112 4.222265376 -3.463206432Z "/></symbol><symbol id="g8CAF85DC339D108EB2BE31505D9538D9" overflow="visible"><path d="M 0 0m 9.701722128 0v 6.855251088c 0 2.419500384 -1.731603216 4.079941824 -3.91389768 4.079941824c -1.54183848 0 -2.60926512 -0.379529472 -3.724132944 -1.019985456l 0.142323552 -1.565559072c 1.233470784 0.877661904 2.419500384 1.1860296 3.581809392 1.1860296c 1.114867824 0 2.063691504 -0.94882368 2.063691504 -2.704147488v -1.019985456c -3.5580888 -0.047441184 -6.570603984 -1.043706048 -6.570603984 -3.131118144c 0 -1.019985456 0.640455984 -2.941353408 2.704147488 -2.941353408c 0.332088288 0 2.561823936 0.047441184 3.937618272 1.114867824v -0.853941312Z m -1.850206176 3.131118144c 0 -0.450691248 0 -1.043706048 -0.806500128 -1.494397296c -0.687897168 -0.426970656 -1.589279664 -0.450691248 -1.850206176 -0.450691248c -1.138588416 0 -2.206015056 0.545573616 -2.206015056 1.54183848c 0 1.66044144 3.842735904 1.826485584 4.86272136 1.873926768Z "/></symbol><symbol id="gD6A42502908EE0C2E49BD935B0C1CA0F" overflow="visible"><path d="M 0 0m 7.756633584 9.203589696v 1.589279664c -2.111132688 -0.023720592 -3.415765248 -1.1860296 -4.1511036 -2.277176832v 2.158573872h -1.66044144v -10.6742664h 1.7790444v 5.076206688c 0 2.3720592 1.707882624 4.079941824 4.03250064 4.127383008Z "/></symbol><symbol id="gF3D4CD3B7DF3CF5FBDB72701DB441284" overflow="visible"><path d="M 0 0m 7.875236544 0.640455984l -0.379529472 1.399514928c -0.616735392 -0.498132432 -1.375794336 -0.782779536 -2.13485328 -0.782779536c -0.877661904 0 -1.209750192 0.71161776 -1.209750192 1.968809136v 5.930148h 3.344603472v 1.375794336h -3.344603472v 3.012515184h -1.636720848v -3.012515184h -2.063691504v -1.375794336h 1.992529728v -6.333398064c 0 -1.42323552 0.332088288 -3.08367696 1.968809136 -3.08367696c 1.66044144 0 2.870191632 0.5930148 3.463206432 0.901382496Z "/></symbol><symbol id="g254AFE515A874C7A854056835DCCDC5E" overflow="visible"><path d="M 0 0m 4.340868336 0v 16.462090848h -2.111132688v -16.462090848Z "/></symbol><symbol id="g36CF6D896AAC8D436349C01D3AE329C" overflow="visible"><path d="M 0 0m 4.340868336 14.849090592v -5.930148h 7.163618784v -1.446956112h -7.163618784v -7.47198648h -2.111132688v 16.390929072h 10.247295744v -1.54183848Z "/></symbol><symbol id="gD9EE42C8D1730BF92864D230206FC2A5" overflow="visible"><path d="M 0 0m 11.124957648 5.21853024c 0 3.178559328 -2.3720592 5.716662672 -5.194809648 5.716662672c -2.917632816 0 -5.21853024 -2.60926512 -5.21853024 -5.716662672c 0 -3.131118144 2.419500384 -5.479456752 5.194809648 -5.479456752c 2.84647104 0 5.21853024 2.395779792 5.21853024 5.479456752Z m -1.850206176 0.23720592c 0 -2.799029856 -1.613000256 -4.198544784 -3.368324064 -4.198544784c -1.636720848 0 -3.344603472 1.328353152 -3.344603472 4.198544784c 0 2.870191632 1.802764992 4.03250064 3.344603472 4.03250064c 1.66044144 0 3.368324064 -1.233470784 3.368324064 -4.03250064Z "/></symbol><symbol id="g501FAC3BBB6A7E82DE39361449ED4B42" overflow="visible"><path d="M 0 0m 10.31845752 0v 10.531942848h -1.850206176v -6.87897168c 0 -1.7790444 -1.328353152 -2.60926512 -2.84647104 -2.60926512c -1.684162032 0 -1.850206176 0.616735392 -1.850206176 1.636720848v 7.851515952h -1.850206176v -7.94639832c 0 -1.707882624 0.545573616 -2.84647104 2.514382752 -2.84647104c 1.257191376 0 2.941353408 0.379529472 4.103662416 1.399514928v -1.138588416Z "/></symbol><symbol id="gAEB94C302EF449E4E75AA9C9FC4FF80B" overflow="visible"><path d="M 0 0m 10.31845752 0v 7.068736416c 0 1.565559072 -0.35580888 3.724132944 -3.249721104 3.724132944c -2.13485328 0 -3.297162288 -1.613000256 -3.43948584 -1.802764992v 1.684162032h -1.707882624v -10.6742664h 1.850206176v 5.81154504c 0 1.565559072 0.5930148 3.534368208 2.395779792 3.534368208c 2.277176832 0 2.300897424 -1.684162032 2.300897424 -2.443220976v -6.902692272Z "/></symbol><symbol id="gD446BD286B24575A7FA0AF43645CA7F1" overflow="visible"><path d="M 0 0m 10.294736928 0v 16.462090848h -1.7790444v -6.973854048c -1.257191376 1.043706048 -2.585544528 1.30463256 -3.463206432 1.30463256c -2.348338608 0 -4.198544784 -2.466941568 -4.198544784 -5.526897936c 0 -3.107397552 1.826485584 -5.526897936 4.079941824 -5.526897936c 0.782779536 0 2.182294464 0.213485328 3.510647616 1.494397296v -1.233470784Z m -1.850206176 3.297162288c 0 -0.332088288 -0.023720592 -0.759058944 -0.782779536 -1.446956112c -0.545573616 -0.47441184 -1.138588416 -0.664176576 -1.755323808 -0.664176576c -1.470676704 0 -3.20227992 1.114867824 -3.20227992 4.056221232c 0 3.131118144 2.039970912 4.103662416 3.43948584 4.103662416c 1.06742664 0 1.7790444 -0.545573616 2.300897424 -1.30463256Z "/></symbol><symbol id="gFE15A70EE43F0B106031E2D0A195E85D" overflow="visible"><path d="M 0 0m 3.700412352 0v 10.531942848h -1.7790444v -10.531942848Z m 0.189764736 13.425855072v 2.111132688h -2.111132688v -2.111132688Z "/></symbol><symbol id="gE83AB1AD35236C4C6F55EB769E111BAA" overflow="visible"><path d="M 0 0m 8.53941312 3.036235776c 0 1.30463256 -0.877661904 2.111132688 -0.925103088 2.182294464c -0.925103088 0.83022072 -1.565559072 0.972544272 -2.751588672 1.1860296c -1.30463256 0.260926512 -2.395779792 0.498132432 -2.395779792 1.66044144c 0 1.470676704 1.707882624 1.470676704 2.01625032 1.470676704c 0.759058944 0 2.01625032 -0.094882368 3.368324064 -0.901382496l 0.284647104 1.54183848c -1.233470784 0.569294208 -2.206015056 0.759058944 -3.415765248 0.759058944c -0.5930148 0 -3.937618272 0 -3.937618272 -3.107397552c 0 -1.162309008 0.687897168 -1.921367952 1.280911968 -2.3720592c 0.735338352 -0.521853024 1.257191376 -0.616735392 2.561823936 -0.877661904c 0.853941312 -0.166044144 2.229735648 -0.450691248 2.229735648 -1.707882624c 0 -1.636720848 -1.873926768 -1.636720848 -2.229735648 -1.636720848c -1.921367952 0 -3.249721104 0.877661904 -3.67669176 1.162309008l -0.284647104 -1.613000256c 0.759058944 -0.379529472 2.063691504 -1.043706048 3.985059456 -1.043706048c 0.426970656 0 1.731603216 0 2.751588672 0.759058944c 0.735338352 0.569294208 1.138588416 1.518117888 1.138588416 2.538103344Z "/></symbol></defs></svg>